<?xml version="1.0" encoding="UTF-8" standalone="no"?>
<!DOCTYPE svg PUBLIC "-//W3C//DTD SVG 1.1//EN" "http://www.w3.org/Graphics/SVG/1.1/DTD/svg11.dtd">
<svg width="100%" height="100%" viewBox="0 0 246 145" version="1.1" xmlns="http://www.w3.org/2000/svg" xmlns:xlink="http://www.w3.org/1999/xlink" xml:space="preserve" style="fill-rule:evenodd;clip-rule:evenodd;stroke-linejoin:round;stroke-miterlimit:1.41421;">
    <g id="Layer-1" transform="matrix(1,0,0,1,-124,-181)">
        <path d="M362.346,275.629L268.764,275.629L314.835,194.285L362.346,275.629ZM275.626,271.629L355.378,271.629L314.889,202.307L275.626,271.629Z"/>
        <g>
            <path d="M275.195,271.629L327.055,217.46" style="fill:white;fill-rule:nonzero;"/>
            <path d="M328.5,218.843L276.64,273.012L273.75,270.246L325.61,216.077L328.5,218.843Z"/>
        </g>
        <path d="M337.255,239.359L275.199,275.359L273.191,271.899L335.247,235.899L337.255,239.359Z"/>
        <path d="M348.91,258.037L274.655,275.575L273.735,271.682L347.99,254.144L348.91,258.037Z"/>
        <g>
            <path d="M146.953,274.473C145.527,273.047 144.814,271.018 144.814,268.386C144.814,267.321 144.893,266.381 145.049,265.566L145.754,262.229C146.663,258.751 148.136,256.049 150.172,254.122C152.209,252.195 154.81,251.231 157.974,251.231C159.729,251.231 161.108,251.474 162.11,251.96C163.113,252.445 163.943,253.142 164.601,254.051L164.883,252.876C164.946,252.531 165.111,252.249 165.377,252.03C165.643,251.811 165.949,251.701 166.293,251.701L171.839,251.701C172.184,251.701 172.45,251.819 172.638,252.054C172.826,252.289 172.889,252.563 172.826,252.876L168.126,274.966C168.064,275.311 167.891,275.593 167.609,275.812C167.327,276.031 167.03,276.141 166.716,276.141L161.123,276.141C160.779,276.141 160.512,276.024 160.324,275.789C160.136,275.554 160.074,275.279 160.136,274.966L160.465,273.509C159.369,274.543 158.272,275.319 157.175,275.836C156.079,276.353 154.7,276.611 153.039,276.611C150.407,276.611 148.379,275.898 146.953,274.473ZM159.878,268.786C160.74,267.924 161.343,266.835 161.687,265.519C162.032,264.203 162.283,263.028 162.439,261.994C162.502,261.493 162.533,261.132 162.533,260.913C162.533,259.942 162.283,259.174 161.781,258.61C161.28,258.046 160.481,257.764 159.384,257.764C158.037,257.764 156.972,258.179 156.188,259.01C155.405,259.84 154.794,260.991 154.355,262.464C154.042,263.529 153.838,264.501 153.744,265.378C153.65,265.942 153.603,266.475 153.603,266.976C153.603,267.979 153.823,268.746 154.261,269.279C154.7,269.812 155.452,270.078 156.517,270.078C157.896,270.078 159.016,269.647 159.878,268.786Z" style="fill-rule:nonzero;"/>
            <path d="M173.696,275.789C173.524,275.554 173.469,275.279 173.531,274.966L180.111,243.946C180.174,243.601 180.346,243.319 180.628,243.1C180.91,242.881 181.208,242.771 181.521,242.771L187.913,242.771C188.258,242.771 188.524,242.889 188.712,243.124C188.9,243.359 188.963,243.633 188.9,243.946L186.644,254.427C187.71,253.393 188.853,252.602 190.075,252.054C191.297,251.505 192.676,251.231 194.211,251.231C196.655,251.231 198.606,251.889 200.063,253.205C201.52,254.521 202.248,256.417 202.248,258.892C202.248,259.863 202.139,260.85 201.919,261.853L199.099,274.966C199.037,275.311 198.864,275.593 198.582,275.812C198.3,276.031 198.003,276.141 197.689,276.141L191.297,276.141C190.953,276.141 190.686,276.031 190.498,275.812C190.31,275.593 190.248,275.311 190.31,274.966L193.036,262.135C193.162,261.634 193.224,261.132 193.224,260.631C193.224,258.72 192.206,257.764 190.169,257.764C188.916,257.764 187.819,258.148 186.879,258.916C185.939,259.683 185.313,260.756 184.999,262.135L182.273,274.966C182.211,275.311 182.038,275.593 181.756,275.812C181.474,276.031 181.177,276.141 180.863,276.141L174.471,276.141C174.127,276.141 173.868,276.024 173.696,275.789Z" style="fill-rule:nonzero;"/>
            <path d="M204.434,275.789C204.262,275.554 204.207,275.279 204.269,274.966L210.849,243.946C210.912,243.601 211.084,243.319 211.366,243.1C211.648,242.881 211.946,242.771 212.259,242.771L218.651,242.771C218.996,242.771 219.262,242.889 219.45,243.124C219.638,243.359 219.701,243.633 219.638,243.946L217.382,254.427C218.448,253.393 219.591,252.602 220.813,252.054C222.035,251.505 223.414,251.231 224.949,251.231C227.393,251.231 229.344,251.889 230.801,253.205C232.258,254.521 232.986,256.417 232.986,258.892C232.986,259.863 232.877,260.85 232.657,261.853L229.837,274.966C229.775,275.311 229.602,275.593 229.32,275.812C229.038,276.031 228.741,276.141 228.427,276.141L222.035,276.141C221.691,276.141 221.424,276.031 221.236,275.812C221.048,275.593 220.986,275.311 221.048,274.966L223.774,262.135C223.9,261.634 223.962,261.132 223.962,260.631C223.962,258.72 222.944,257.764 220.907,257.764C219.654,257.764 218.557,258.148 217.617,258.916C216.677,259.683 216.051,260.756 215.737,262.135L213.011,274.966C212.949,275.311 212.776,275.593 212.494,275.812C212.212,276.031 211.915,276.141 211.601,276.141L205.209,276.141C204.865,276.141 204.606,276.024 204.434,275.789Z" style="fill-rule:nonzero;"/>
            <path d="M238.039,274.473C236.613,273.047 235.9,271.018 235.9,268.386C235.9,267.321 235.979,266.381 236.135,265.566L236.84,262.229C237.749,258.751 239.222,256.049 241.258,254.122C243.295,252.195 245.896,251.231 249.06,251.231C250.815,251.231 252.194,251.474 253.196,251.96C254.199,252.445 255.029,253.142 255.687,254.051L255.969,252.876C256.032,252.531 256.197,252.249 256.463,252.03C256.729,251.811 257.035,251.701 257.379,251.701L262.925,251.701C263.27,251.701 263.536,251.819 263.724,252.054C263.912,252.289 263.975,252.563 263.912,252.876L259.212,274.966C259.15,275.311 258.977,275.593 258.695,275.812C258.413,276.031 258.116,276.141 257.802,276.141L252.209,276.141C251.865,276.141 251.598,276.024 251.41,275.789C251.222,275.554 251.16,275.279 251.222,274.966L251.551,273.509C250.455,274.543 249.358,275.319 248.261,275.836C247.165,276.353 245.786,276.611 244.125,276.611C241.493,276.611 239.465,275.898 238.039,274.473ZM250.964,268.786C251.826,267.924 252.429,266.835 252.773,265.519C253.118,264.203 253.369,263.028 253.525,261.994C253.588,261.493 253.619,261.132 253.619,260.913C253.619,259.942 253.369,259.174 252.867,258.61C252.366,258.046 251.567,257.764 250.47,257.764C249.123,257.764 248.058,258.179 247.274,259.01C246.491,259.84 245.88,260.991 245.441,262.464C245.128,263.529 244.924,264.501 244.83,265.378C244.736,265.942 244.689,266.475 244.689,266.976C244.689,267.979 244.909,268.746 245.347,269.279C245.786,269.812 246.538,270.078 247.603,270.078C248.982,270.078 250.102,269.647 250.964,268.786Z" style="fill-rule:nonzero;"/>
            <path d="M193.817,294.767C193.745,294.695 193.697,294.581 193.673,294.425L192.881,285.947C192.869,285.827 192.902,285.725 192.98,285.641C193.058,285.557 193.169,285.515 193.313,285.515L194.015,285.515C194.255,285.515 194.387,285.611 194.411,285.803L195.005,292.679L198.569,285.893C198.713,285.641 198.899,285.515 199.127,285.515L199.775,285.515C200.027,285.515 200.165,285.641 200.189,285.893L200.927,292.679L204.419,285.803C204.443,285.731 204.497,285.665 204.581,285.605C204.665,285.545 204.761,285.515 204.869,285.515L205.715,285.515C205.919,285.515 206.021,285.605 206.021,285.785C206.021,285.845 206.003,285.923 205.967,286.019L201.647,294.425C201.563,294.581 201.47,294.695 201.368,294.767C201.266,294.839 201.137,294.875 200.981,294.875L200.279,294.875C199.967,294.875 199.799,294.725 199.775,294.425L199.001,287.909L195.545,294.425C195.377,294.725 195.143,294.875 194.843,294.875L194.159,294.875C194.003,294.875 193.889,294.839 193.817,294.767Z" style="fill-rule:nonzero;"/>
            <path d="M207.344,294.182C206.774,293.6 206.489,292.787 206.489,291.743C206.489,291.407 206.513,291.089 206.561,290.789C206.621,290.429 206.705,290.027 206.813,289.583C207.173,288.287 207.8,287.255 208.694,286.487C209.588,285.719 210.647,285.335 211.871,285.335C212.951,285.335 213.776,285.623 214.346,286.199C214.916,286.775 215.201,287.579 215.201,288.611C215.201,289.043 215.147,289.511 215.039,290.015L214.967,290.339C214.943,290.459 214.88,290.558 214.778,290.636C214.676,290.714 214.565,290.753 214.445,290.753L208.217,290.753L208.181,290.915C208.145,291.131 208.127,291.347 208.127,291.563C208.127,292.187 208.295,292.706 208.631,293.12C208.967,293.534 209.447,293.741 210.071,293.741C210.635,293.741 211.121,293.63 211.529,293.408C211.937,293.186 212.249,292.955 212.465,292.715C212.597,292.571 212.696,292.484 212.762,292.454C212.828,292.424 212.933,292.409 213.077,292.409L213.887,292.409C213.995,292.409 214.079,292.442 214.139,292.508C214.199,292.574 214.217,292.661 214.193,292.769C214.121,293.033 213.881,293.348 213.473,293.714C213.065,294.08 212.54,294.395 211.898,294.659C211.256,294.923 210.557,295.055 209.801,295.055C208.733,295.055 207.914,294.764 207.344,294.182ZM213.491,289.529L213.509,289.475C213.569,289.175 213.599,288.911 213.599,288.683C213.599,288.059 213.425,287.561 213.077,287.189C212.729,286.817 212.237,286.631 211.601,286.631C210.821,286.631 210.152,286.895 209.594,287.423C209.036,287.951 208.667,288.635 208.487,289.475L208.487,289.529L213.491,289.529Z" style="fill-rule:nonzero;"/>
            <path d="M218.783,294.686C218.327,294.44 217.985,294.107 217.757,293.687L217.595,294.461C217.571,294.581 217.511,294.68 217.415,294.758C217.319,294.836 217.211,294.875 217.091,294.875L216.335,294.875C216.215,294.875 216.125,294.836 216.065,294.758C216.005,294.68 215.987,294.581 216.011,294.461L218.549,282.509C218.573,282.389 218.63,282.29 218.72,282.212C218.81,282.134 218.921,282.095 219.053,282.095L219.863,282.095C219.983,282.095 220.073,282.134 220.133,282.212C220.193,282.29 220.211,282.389 220.187,282.509L219.305,286.667C219.725,286.235 220.169,285.905 220.637,285.677C221.105,285.449 221.669,285.335 222.329,285.335C223.409,285.335 224.21,285.638 224.732,286.244C225.254,286.85 225.515,287.645 225.515,288.629C225.515,288.977 225.491,289.295 225.443,289.583C225.347,290.099 225.257,290.507 225.173,290.807C224.861,292.055 224.318,293.075 223.544,293.867C222.77,294.659 221.759,295.055 220.511,295.055C219.815,295.055 219.239,294.932 218.783,294.686ZM223.553,290.717C223.637,290.453 223.709,290.105 223.769,289.673C223.829,289.289 223.859,288.959 223.859,288.683C223.859,288.083 223.718,287.609 223.436,287.261C223.154,286.913 222.671,286.739 221.987,286.739C221.423,286.739 220.913,286.868 220.457,287.126C220.001,287.384 219.623,287.72 219.323,288.134C219.023,288.548 218.819,288.983 218.711,289.439C218.591,289.907 218.495,290.369 218.423,290.825C218.375,291.053 218.351,291.299 218.351,291.563C218.351,292.175 218.51,292.676 218.828,293.066C219.146,293.456 219.653,293.651 220.349,293.651C221.885,293.651 222.953,292.673 223.553,290.717Z" style="fill-rule:nonzero;"/>
            <path d="M232.616,294.695C232.118,294.455 231.758,294.176 231.536,293.858C231.314,293.54 231.203,293.249 231.203,292.985C231.203,292.841 231.254,292.721 231.356,292.625C231.458,292.529 231.563,292.481 231.671,292.481L232.427,292.481C232.499,292.481 232.556,292.493 232.598,292.517C232.64,292.541 232.679,292.595 232.715,292.679C232.943,293.027 233.204,293.294 233.498,293.48C233.792,293.666 234.227,293.759 234.803,293.759C235.451,293.759 235.997,293.639 236.441,293.399C236.885,293.159 237.155,292.811 237.251,292.355C237.275,292.211 237.287,292.121 237.287,292.085C237.287,291.749 237.107,291.488 236.747,291.302C236.387,291.116 235.727,290.909 234.767,290.681C233.927,290.477 233.324,290.207 232.958,289.871C232.592,289.535 232.409,289.121 232.409,288.629C232.409,288.509 232.433,288.305 232.481,288.017C232.577,287.561 232.802,287.129 233.156,286.721C233.51,286.313 233.975,285.98 234.551,285.722C235.127,285.464 235.775,285.335 236.495,285.335C237.239,285.335 237.851,285.458 238.331,285.704C238.811,285.95 239.153,286.238 239.357,286.568C239.561,286.898 239.639,287.177 239.591,287.405C239.579,287.525 239.528,287.624 239.438,287.702C239.348,287.78 239.243,287.819 239.123,287.819L238.421,287.819C238.277,287.819 238.175,287.753 238.115,287.621C237.947,287.381 237.809,287.201 237.701,287.081C237.593,286.961 237.419,286.856 237.179,286.766C236.939,286.676 236.621,286.631 236.225,286.631C235.637,286.631 235.16,286.754 234.794,287C234.428,287.246 234.197,287.573 234.101,287.981C234.077,288.101 234.065,288.191 234.065,288.251C234.065,288.539 234.23,288.779 234.56,288.971C234.89,289.163 235.499,289.361 236.387,289.565C237.311,289.769 237.977,290.051 238.385,290.411C238.793,290.771 238.997,291.215 238.997,291.743C238.997,291.911 238.979,292.097 238.943,292.301C238.775,293.093 238.298,293.75 237.512,294.272C236.726,294.794 235.727,295.055 234.515,295.055C233.747,295.055 233.114,294.935 232.616,294.695Z" style="fill-rule:nonzero;"/>
            <path d="M241.49,294.182C240.872,293.6 240.563,292.823 240.563,291.851C240.563,291.599 240.593,291.305 240.653,290.969C240.713,290.489 240.821,289.973 240.977,289.421C241.289,288.173 241.862,287.18 242.696,286.442C243.53,285.704 244.607,285.335 245.927,285.335C247.055,285.335 247.925,285.629 248.537,286.217C249.149,286.805 249.455,287.591 249.455,288.575C249.455,288.887 249.431,289.169 249.383,289.421C249.275,290.009 249.161,290.525 249.041,290.969C248.729,292.217 248.156,293.21 247.322,293.948C246.488,294.686 245.411,295.055 244.091,295.055C242.975,295.055 242.108,294.764 241.49,294.182ZM246.206,292.976C246.788,292.49 247.193,291.791 247.421,290.879C247.469,290.687 247.565,290.231 247.709,289.511C247.769,289.175 247.799,288.893 247.799,288.665C247.799,288.017 247.634,287.525 247.304,287.189C246.974,286.853 246.491,286.685 245.855,286.685C245.075,286.685 244.394,286.931 243.812,287.423C243.23,287.915 242.831,288.611 242.615,289.511C242.483,289.955 242.381,290.411 242.309,290.879C242.261,291.155 242.237,291.437 242.237,291.725C242.237,293.045 242.879,293.705 244.163,293.705C244.943,293.705 245.624,293.462 246.206,292.976Z" style="fill-rule:nonzero;"/>
            <path d="M250.652,294.758C250.586,294.68 250.565,294.581 250.589,294.461L253.145,282.509C253.169,282.389 253.226,282.29 253.316,282.212C253.406,282.134 253.511,282.095 253.631,282.095L254.423,282.095C254.543,282.095 254.636,282.134 254.702,282.212C254.768,282.29 254.789,282.389 254.765,282.509L252.209,294.461C252.185,294.581 252.128,294.68 252.038,294.758C251.948,294.836 251.843,294.875 251.723,294.875L250.931,294.875C250.811,294.875 250.718,294.836 250.652,294.758Z" style="fill-rule:nonzero;"/>
            <path d="M256.205,294.317C255.701,293.825 255.449,293.135 255.449,292.247C255.449,291.899 255.497,291.485 255.593,291.005L256.673,285.929C256.697,285.809 256.754,285.71 256.844,285.632C256.934,285.554 257.045,285.515 257.177,285.515L258.005,285.515C258.125,285.515 258.212,285.554 258.266,285.632C258.32,285.71 258.335,285.809 258.311,285.929L257.267,290.915C257.159,291.383 257.105,291.791 257.105,292.139C257.105,292.643 257.243,293.021 257.519,293.273C257.795,293.525 258.251,293.651 258.887,293.651C259.703,293.651 260.405,293.405 260.993,292.913C261.581,292.421 261.965,291.755 262.145,290.915L263.207,285.929C263.231,285.809 263.291,285.71 263.387,285.632C263.483,285.554 263.591,285.515 263.711,285.515L264.539,285.515C264.659,285.515 264.749,285.554 264.809,285.632C264.869,285.71 264.887,285.809 264.863,285.929L263.045,294.461C263.021,294.581 262.964,294.68 262.874,294.758C262.784,294.836 262.679,294.875 262.559,294.875L261.785,294.875C261.665,294.875 261.572,294.836 261.506,294.758C261.44,294.68 261.419,294.581 261.443,294.461L261.605,293.651C261.149,294.143 260.705,294.5 260.273,294.722C259.841,294.944 259.253,295.055 258.509,295.055C257.477,295.055 256.709,294.809 256.205,294.317Z" style="fill-rule:nonzero;"/>
            <path d="M267.482,294.38C267.104,294.05 266.915,293.567 266.915,292.931C266.915,292.583 266.963,292.181 267.059,291.725L268.085,286.901L266.681,286.901C266.561,286.901 266.468,286.865 266.402,286.793C266.336,286.721 266.315,286.625 266.339,286.505L266.465,285.929C266.489,285.809 266.549,285.71 266.645,285.632C266.741,285.554 266.849,285.515 266.969,285.515L268.373,285.515L269.021,282.509C269.045,282.389 269.102,282.29 269.192,282.212C269.282,282.134 269.387,282.095 269.507,282.095L270.281,282.095C270.413,282.095 270.509,282.134 270.569,282.212C270.629,282.29 270.647,282.389 270.623,282.509L269.975,285.515L272.207,285.515C272.327,285.515 272.417,285.551 272.477,285.623C272.537,285.695 272.555,285.797 272.531,285.929L272.405,286.505C272.381,286.625 272.324,286.721 272.234,286.793C272.144,286.865 272.039,286.901 271.919,286.901L269.687,286.901L268.679,291.599C268.571,292.091 268.517,292.445 268.517,292.661C268.517,292.925 268.592,293.123 268.742,293.255C268.892,293.387 269.153,293.453 269.525,293.453L270.713,293.453C270.833,293.453 270.92,293.492 270.974,293.57C271.028,293.648 271.043,293.747 271.019,293.867L270.893,294.461C270.869,294.581 270.812,294.68 270.722,294.758C270.632,294.836 270.527,294.875 270.407,294.875L269.363,294.875C268.487,294.875 267.86,294.71 267.482,294.38Z" style="fill-rule:nonzero;"/>
            <path d="M274.898,283.634C274.832,283.556 274.811,283.457 274.835,283.337L275.051,282.401C275.075,282.281 275.132,282.179 275.222,282.095C275.312,282.011 275.417,281.969 275.537,281.969L276.617,281.969C276.737,281.969 276.83,282.011 276.896,282.095C276.962,282.179 276.983,282.281 276.959,282.401L276.743,283.337C276.731,283.457 276.677,283.556 276.581,283.634C276.485,283.712 276.377,283.751 276.257,283.751L275.177,283.751C275.057,283.751 274.964,283.712 274.898,283.634ZM272.684,294.758C272.618,294.68 272.597,294.581 272.621,294.461L274.439,285.929C274.463,285.809 274.523,285.71 274.619,285.632C274.715,285.554 274.823,285.515 274.943,285.515L275.735,285.515C275.855,285.515 275.945,285.554 276.005,285.632C276.065,285.71 276.083,285.809 276.059,285.929L274.241,294.461C274.217,294.581 274.16,294.68 274.07,294.758C273.98,294.836 273.875,294.875 273.755,294.875L272.963,294.875C272.843,294.875 272.75,294.836 272.684,294.758Z" style="fill-rule:nonzero;"/>
            <path d="M278.12,294.182C277.502,293.6 277.193,292.823 277.193,291.851C277.193,291.599 277.223,291.305 277.283,290.969C277.343,290.489 277.451,289.973 277.607,289.421C277.919,288.173 278.492,287.18 279.326,286.442C280.16,285.704 281.237,285.335 282.557,285.335C283.685,285.335 284.555,285.629 285.167,286.217C285.779,286.805 286.085,287.591 286.085,288.575C286.085,288.887 286.061,289.169 286.013,289.421C285.905,290.009 285.791,290.525 285.671,290.969C285.359,292.217 284.786,293.21 283.952,293.948C283.118,294.686 282.041,295.055 280.721,295.055C279.605,295.055 278.738,294.764 278.12,294.182ZM282.836,292.976C283.418,292.49 283.823,291.791 284.051,290.879C284.099,290.687 284.195,290.231 284.339,289.511C284.399,289.175 284.429,288.893 284.429,288.665C284.429,288.017 284.264,287.525 283.934,287.189C283.604,286.853 283.121,286.685 282.485,286.685C281.705,286.685 281.024,286.931 280.442,287.423C279.86,287.915 279.461,288.611 279.245,289.511C279.113,289.955 279.011,290.411 278.939,290.879C278.891,291.155 278.867,291.437 278.867,291.725C278.867,293.045 279.509,293.705 280.793,293.705C281.573,293.705 282.254,293.462 282.836,292.976Z" style="fill-rule:nonzero;"/>
            <path d="M287.282,294.758C287.216,294.68 287.195,294.581 287.219,294.461L289.037,285.929C289.061,285.809 289.121,285.71 289.217,285.632C289.313,285.554 289.421,285.515 289.541,285.515L290.315,285.515C290.435,285.515 290.525,285.551 290.585,285.623C290.645,285.695 290.663,285.797 290.639,285.929L290.459,286.721C291.347,285.797 292.403,285.335 293.627,285.335C294.659,285.335 295.43,285.581 295.94,286.073C296.45,286.565 296.705,287.255 296.705,288.143C296.705,288.503 296.657,288.911 296.561,289.367L295.463,294.461C295.439,294.581 295.382,294.68 295.292,294.758C295.202,294.836 295.097,294.875 294.977,294.875L294.149,294.875C294.029,294.875 293.939,294.836 293.879,294.758C293.819,294.68 293.801,294.581 293.825,294.461L294.869,289.475C294.977,289.019 295.031,288.623 295.031,288.287C295.031,287.759 294.89,287.369 294.608,287.117C294.326,286.865 293.867,286.739 293.231,286.739C292.391,286.739 291.677,286.982 291.089,287.468C290.501,287.954 290.111,288.623 289.919,289.475L288.875,294.461C288.851,294.581 288.794,294.68 288.704,294.758C288.614,294.836 288.509,294.875 288.389,294.875L287.561,294.875C287.441,294.875 287.348,294.836 287.282,294.758Z" style="fill-rule:nonzero;"/>
            <path d="M299.522,294.695C299.024,294.455 298.664,294.176 298.442,293.858C298.22,293.54 298.109,293.249 298.109,292.985C298.109,292.841 298.16,292.721 298.262,292.625C298.364,292.529 298.469,292.481 298.577,292.481L299.333,292.481C299.405,292.481 299.462,292.493 299.504,292.517C299.546,292.541 299.585,292.595 299.621,292.679C299.849,293.027 300.11,293.294 300.404,293.48C300.698,293.666 301.133,293.759 301.709,293.759C302.357,293.759 302.903,293.639 303.347,293.399C303.791,293.159 304.061,292.811 304.157,292.355C304.181,292.211 304.193,292.121 304.193,292.085C304.193,291.749 304.013,291.488 303.653,291.302C303.293,291.116 302.633,290.909 301.673,290.681C300.833,290.477 300.23,290.207 299.864,289.871C299.498,289.535 299.315,289.121 299.315,288.629C299.315,288.509 299.339,288.305 299.387,288.017C299.483,287.561 299.708,287.129 300.062,286.721C300.416,286.313 300.881,285.98 301.457,285.722C302.033,285.464 302.681,285.335 303.401,285.335C304.145,285.335 304.757,285.458 305.237,285.704C305.717,285.95 306.059,286.238 306.263,286.568C306.467,286.898 306.545,287.177 306.497,287.405C306.485,287.525 306.434,287.624 306.344,287.702C306.254,287.78 306.149,287.819 306.029,287.819L305.327,287.819C305.183,287.819 305.081,287.753 305.021,287.621C304.853,287.381 304.715,287.201 304.607,287.081C304.499,286.961 304.325,286.856 304.085,286.766C303.845,286.676 303.527,286.631 303.131,286.631C302.543,286.631 302.066,286.754 301.7,287C301.334,287.246 301.103,287.573 301.007,287.981C300.983,288.101 300.971,288.191 300.971,288.251C300.971,288.539 301.136,288.779 301.466,288.971C301.796,289.163 302.405,289.361 303.293,289.565C304.217,289.769 304.883,290.051 305.291,290.411C305.699,290.771 305.903,291.215 305.903,291.743C305.903,291.911 305.885,292.097 305.849,292.301C305.681,293.093 305.204,293.75 304.418,294.272C303.632,294.794 302.633,295.055 301.421,295.055C300.653,295.055 300.02,294.935 299.522,294.695Z" style="fill-rule:nonzero;"/>
        </g>
    </g>
</svg>
