<svg id="4a340409-d7ef-4a4d-8c24-17cfb09bc7a3" data-name="colour" xmlns="http://www.w3.org/2000/svg" xmlns:xlink="http://www.w3.org/1999/xlink" viewBox="0 0 1284.7488 284.2334">
  <defs>
    <linearGradient id="4b1c76e5-bbe8-4f31-9fc2-1573fd6c0868" data-name="HMA Gradient RGB" x1="10.2909" y1="141.7323" x2="1286.7485" y2="141.7323" gradientUnits="userSpaceOnUse">
      <stop offset="0" stop-color="#39c7c7"/>
      <stop offset="0.22" stop-color="#49babd"/>
      <stop offset="0.45" stop-color="#eb3752"/>
      <stop offset="1" stop-color="#193b7e"/>
    </linearGradient>
    <linearGradient id="c5f705d6-24d6-48bf-a237-a53b51456264" x1="6.8402" y1="138.4474" x2="1290.845" y2="138.4474" xlink:href="#4b1c76e5-bbe8-4f31-9fc2-1573fd6c0868"/>
    <linearGradient id="07811649-1af8-4503-ba0b-cd668dca0b84" x1="1.0476" y1="141.7323" x2="1277.5052" y2="141.7323" xlink:href="#4b1c76e5-bbe8-4f31-9fc2-1573fd6c0868"/>
    <linearGradient id="62514a9a-2dea-4d31-b0c5-40561c7c38fe" x1="46.9876" y1="218.1967" x2="1328.1339" y2="218.1967" gradientTransform="translate(278.2797 -602.1589) rotate(30.0001)" xlink:href="#4b1c76e5-bbe8-4f31-9fc2-1573fd6c0868"/>
    <linearGradient id="ea7cc669-085a-43ac-9314-e2355cfef027" x1="41.8212" y1="218.1967" x2="1328.6966" y2="218.1967" gradientTransform="translate(2239.6915 -163.7311) rotate(150)" xlink:href="#4b1c76e5-bbe8-4f31-9fc2-1573fd6c0868"/>
    <linearGradient id="3f0ddb90-a886-4241-a7d0-c9bde398b2a0" x1="68.4753" y1="218.1967" x2="1349.232" y2="218.1967" gradientTransform="translate(154.9151 -262.3836) rotate(25)" xlink:href="#4b1c76e5-bbe8-4f31-9fc2-1573fd6c0868"/>
    <linearGradient id="b51cba29-6770-4054-b34d-02c1da36692f" x1="65.6701" y1="218.1967" x2="1352.9387" y2="218.1967" gradientTransform="translate(1180.9995 174.5722) rotate(155)" xlink:href="#4b1c76e5-bbe8-4f31-9fc2-1573fd6c0868"/>
    <linearGradient id="b80c24fe-5716-4499-a656-9700fb48f172" x1="68.9731" y1="217.7012" x2="1349.7297" y2="217.7012" gradientTransform="translate(173.0971 -345.3879) rotate(25)" xlink:href="#4b1c76e5-bbe8-4f31-9fc2-1573fd6c0868"/>
    <linearGradient id="efb4266a-728a-42bf-92d3-287da25afb9b" x1="65.171" y1="217.3165" x2="1352.4396" y2="217.3165" gradientTransform="translate(1556.3985 89.5878) rotate(155)" xlink:href="#4b1c76e5-bbe8-4f31-9fc2-1573fd6c0868"/>
  </defs>
  <title>logo</title>
  <g>
    <g>
      <rect x="219.4934" width="73.7006" height="283.4646" rx="36.8503" ry="36.8503" style="fill: url(#4b1c76e5-bbe8-4f31-9fc2-1573fd6c0868)"/>
      <rect x="17.6158" y="104.4317" width="257.9625" height="68.0315" rx="34.0157" ry="34.0157" style="fill: url(#c5f705d6-24d6-48bf-a237-a53b51456264)"/>
      <rect x="0.0001" width="73.7006" height="283.4646" rx="36.8503" ry="36.8503" style="fill: url(#07811649-1af8-4503-ba0b-cd668dca0b84)"/>
    </g>
    <g>
      <rect x="1225.9313" y="60.8739" width="73.7006" height="314.6457" rx="36.8503" ry="36.8503" transform="translate(-15.0429 585.2414) rotate(-30.0001)" style="fill: url(#62514a9a-2dea-4d31-b0c5-40561c7c38fe)"/>
      <rect x="1104.9313" y="60.8739" width="73.7006" height="314.6457" rx="36.8503" ry="36.8503" transform="translate(1946.3689 902.6688) rotate(-150)" style="fill: url(#ea7cc669-085a-43ac-9314-e2355cfef027)"/>
    </g>
    <g>
      <rect x="632.3753" y="65.9762" width="73.7006" height="304.4409" rx="36.8503" ry="36.8503" transform="translate(-104.6383 227.887) rotate(-25)" style="fill: url(#3f0ddb90-a886-4241-a7d0-c9bde398b2a0)"/>
      <rect x="534.2986" y="65.9762" width="73.7006" height="304.4409" rx="36.8503" ry="36.8503" transform="translate(921.4461 581.9447) rotate(-155)" style="fill: url(#b51cba29-6770-4054-b34d-02c1da36692f)"/>
      <rect x="828.6701" y="65.4807" width="73.7006" height="304.4409" rx="36.8503" ry="36.8503" transform="translate(-86.0376 310.7984) rotate(-25)" style="fill: url(#b80c24fe-5716-4499-a656-9700fb48f172)"/>
      <rect x="731.4184" y="65.096" width="73.7006" height="304.4409" rx="36.8503" ry="36.8503" transform="translate(1297.5891 663.5732) rotate(-155)" style="fill: url(#efb4266a-728a-42bf-92d3-287da25afb9b)"/>
    </g>
  </g>
</svg>
