<?xml version="1.0" encoding="UTF-8" standalone="no"?>
<!DOCTYPE svg PUBLIC "-//W3C//DTD SVG 1.1//EN" "http://www.w3.org/Graphics/SVG/1.1/DTD/svg11.dtd">
<svg width="100%" height="100%" viewBox="0 0 2696 946" version="1.1" xmlns="http://www.w3.org/2000/svg" xmlns:xlink="http://www.w3.org/1999/xlink" xml:space="preserve" xmlns:serif="http://www.serif.com/" style="fill-rule:evenodd;clip-rule:evenodd;stroke-linejoin:round;stroke-miterlimit:1.41421;">
    <g transform="matrix(4.16667,0,0,4.16667,0,0)">
        <rect x="2.449" y="3.085" width="203.279" height="78.691" style="fill:white;fill-rule:nonzero;"/>
        <path d="M211.181,0.183L0,0.183L0,85.223L211.181,85.223L211.181,0.183ZM84.908,8.389L70.329,76.837L47.451,76.837L33.068,29.474L32.874,29.474L23.305,76.837L5.956,76.837L20.651,8.389L43.606,8.389L57.706,55.853L57.899,55.853L67.558,8.389L84.908,8.389ZM150.342,8.389L136.049,76.837L117.626,76.837L123.735,47.52L101.946,47.52L95.834,76.837L77.411,76.837L91.706,8.389L110.129,8.389L104.717,34.575L126.495,34.575L131.919,8.389L150.342,8.389ZM203.271,10.256L198.83,23.884C195.283,22.222 190.451,20.754 183.655,20.754C176.367,20.754 170.449,21.822 170.449,27.323C170.449,37.022 197.159,33.403 197.159,54.193C197.159,73.114 179.513,78.023 163.548,78.023C156.453,78.023 148.271,76.346 142.264,74.479L146.601,60.556C150.238,62.913 157.542,64.485 163.548,64.485C169.272,64.485 178.23,63.402 178.23,56.344C178.23,45.357 151.521,49.478 151.521,30.169C151.521,12.51 167.098,7.216 182.178,7.216C190.66,7.216 198.637,8.105 203.271,10.256Z" style="fill:rgb(0,114,188);fill-rule:nonzero;"/>
        <path d="M15.96,152.681L24.36,152.681L24.36,136.121L39.36,110.801L30.48,110.801L20.4,128.381L10.5,110.801L0.66,110.801L15.96,136.121L15.96,152.681Z" style="fill:rgb(35,31,32);fill-rule:nonzero;"/>
        <path d="M36.671,137.442C36.671,146.322 42.611,153.402 52.811,153.402C63.071,153.402 69.011,146.322 69.011,137.442C69.011,127.242 61.991,121.062 52.811,121.062C43.691,121.062 36.671,127.242 36.671,137.442ZM45.071,136.482C45.071,131.862 47.591,127.302 52.811,127.302C58.091,127.302 60.611,131.742 60.611,136.482C60.611,141.642 58.991,147.162 52.811,147.162C46.691,147.162 45.071,141.582 45.071,136.482Z" style="fill:rgb(35,31,32);fill-rule:nonzero;"/>
        <path d="M75.491,152.682L83.531,152.682L83.531,141.342C83.531,136.902 83.531,128.742 90.071,128.742C91.511,128.742 92.951,128.982 93.671,129.402L93.671,121.302C92.831,121.062 91.991,121.062 91.211,121.062C86.411,121.062 83.111,125.922 82.751,128.802L82.631,128.802L82.631,121.782L75.491,121.782L75.491,152.682Z" style="fill:rgb(35,31,32);fill-rule:nonzero;"/>
        <path d="M98.83,152.682L106.87,152.682L106.87,137.682L106.99,137.682L117.31,152.682L127.51,152.682L114.55,135.582L126.07,121.782L116.59,121.782L106.99,134.142L106.87,134.142L106.87,107.682L98.83,107.682L98.83,152.682Z" style="fill:rgb(35,31,32);fill-rule:nonzero;"/>
        <path d="M150.91,122.202C148.39,121.662 145.93,121.062 142.15,121.062C135.85,121.062 130.03,124.002 130.03,130.662C130.03,141.822 144.01,137.682 144.01,143.742C144.01,146.742 140.77,147.522 138.73,147.522C135.97,147.522 133.33,146.742 130.81,145.482L130.33,152.082C133.27,152.862 136.39,153.402 139.45,153.402C145.99,153.402 152.41,150.522 152.41,143.322C152.41,132.162 138.43,135.282 138.43,130.362C138.43,127.722 141.01,126.942 143.17,126.942C146.11,126.942 147.91,127.422 150.37,128.262L150.91,122.202Z" style="fill:rgb(35,31,32);fill-rule:nonzero;"/>
        <path d="M158.649,152.682L166.689,152.682L166.689,137.562C166.689,133.602 167.949,127.302 173.769,127.302C178.929,127.302 178.989,132.402 178.989,136.182L178.989,152.682L187.029,152.682L187.029,133.182C187.029,126.222 183.849,121.062 176.529,121.062C172.329,121.062 168.849,122.982 166.809,125.982L166.689,125.982L166.689,107.682L158.649,107.682L158.649,152.682Z" style="fill:rgb(35,31,32);fill-rule:nonzero;"/>
        <path d="M195.489,152.682L203.529,152.682L203.529,121.782L195.489,121.782L195.489,152.682ZM195.489,116.142L203.529,116.142L203.529,108.462L195.489,108.462L195.489,116.142Z" style="fill:rgb(35,31,32);fill-rule:nonzero;"/>
        <path d="M212.169,152.682L220.209,152.682L220.209,141.342C220.209,136.902 220.209,128.742 226.749,128.742C228.189,128.742 229.629,128.982 230.349,129.402L230.349,121.302C229.509,121.062 228.669,121.062 227.889,121.062C223.089,121.062 219.789,125.922 219.429,128.802L219.309,128.802L219.309,121.782L212.169,121.782L212.169,152.682Z" style="fill:rgb(35,31,32);fill-rule:nonzero;"/>
        <path d="M239.959,134.202C240.319,130.062 242.599,126.942 247.099,126.942C251.599,126.942 253.399,130.302 253.639,134.202L239.959,134.202ZM259.039,144.402C256.039,146.082 252.679,147.522 248.779,147.522C243.799,147.522 240.319,144.702 239.959,139.722L261.319,139.722C261.319,128.922 258.079,121.062 246.619,121.062C237.019,121.062 232.279,128.442 232.279,137.382C232.279,147.522 238.219,153.402 248.419,153.402C252.739,153.402 256.099,152.562 259.039,150.942L259.039,144.402Z" style="fill:rgb(35,31,32);fill-rule:nonzero;"/>
        <path d="M285.92,130.302C288.62,128.262 292.04,126.942 295.46,126.942C300.2,126.942 302.42,128.622 302.42,133.602L297.98,133.602C294.62,133.602 290.66,133.902 287.6,135.402C284.54,136.902 282.32,139.602 282.32,144.222C282.32,150.102 287.66,153.402 293.12,153.402C296.78,153.402 300.8,151.482 302.66,148.062L302.78,148.062C302.84,149.022 302.84,151.062 303.14,152.682L310.22,152.682C310.04,150.282 309.92,148.122 309.86,145.782C309.8,143.502 309.74,141.162 309.74,138.042L309.74,134.082C309.74,124.962 305.84,121.062 296.42,121.062C293,121.062 288.8,121.962 285.68,123.402L285.92,130.302ZM290,143.742C290,139.002 295.34,138.402 298.94,138.402L302.42,138.402C302.42,140.802 302.06,143.022 300.74,144.762C299.48,146.442 297.56,147.522 295.1,147.522C292.22,147.522 290,146.382 290,143.742Z" style="fill:rgb(35,31,32);fill-rule:nonzero;"/>
        <path d="M317.659,152.682L325.699,152.682L325.699,137.562C325.699,133.602 326.959,127.302 332.779,127.302C337.939,127.302 337.999,132.402 337.999,136.182L337.999,152.682L346.039,152.682L346.039,133.182C346.039,126.222 342.859,121.062 335.539,121.062C331.339,121.062 327.919,122.442 325.399,125.982L325.279,125.982L325.279,121.782L317.659,121.782L317.659,152.682Z" style="fill:rgb(35,31,32);fill-rule:nonzero;"/>
        <path d="M360.739,137.142C360.739,133.002 362.179,127.302 367.399,127.302C372.559,127.302 374.599,132.822 374.599,137.142C374.599,141.522 372.859,147.162 367.519,147.162C362.239,147.162 360.739,141.402 360.739,137.142ZM374.899,152.682L382.699,152.682L382.699,107.682L374.659,107.682L374.659,125.382L374.539,125.382C372.139,122.442 369.319,121.062 365.299,121.062C355.819,121.062 352.339,128.622 352.339,137.142C352.339,145.602 355.819,153.402 365.299,153.402C369.079,153.402 372.379,152.202 374.779,149.202L374.899,149.202L374.899,152.682Z" style="fill:rgb(35,31,32);fill-rule:nonzero;"/>
        <path d="M408.379,152.682L416.779,152.682L416.779,134.322L433.579,134.322L433.579,152.682L441.979,152.682L441.979,110.802L433.579,110.802L433.579,127.722L416.779,127.722L416.779,110.802L408.379,110.802L408.379,152.682Z" style="fill:rgb(35,31,32);fill-rule:nonzero;"/>
        <path d="M479.358,121.782L471.318,121.782L471.318,136.902C471.318,140.862 470.058,147.162 464.238,147.162C459.078,147.162 459.018,142.062 459.018,138.282L459.018,121.782L450.978,121.782L450.978,141.282C450.978,148.242 454.158,153.402 461.478,153.402C465.678,153.402 469.158,151.482 471.618,148.482L471.738,148.482L471.738,152.682L479.358,152.682L479.358,121.782Z" style="fill:rgb(35,31,32);fill-rule:nonzero;"/>
        <path d="M487.518,152.682L495.558,152.682L495.558,137.682C495.558,133.662 496.218,127.302 501.558,127.302C506.178,127.302 506.178,131.382 506.178,134.262L506.178,152.682L514.218,152.682L514.218,137.682C514.218,133.662 514.878,127.302 520.218,127.302C524.838,127.302 524.838,131.382 524.838,134.262L524.838,152.682L532.878,152.682L532.878,133.182C532.878,126.282 530.718,121.062 523.098,121.062C519.318,121.062 515.298,122.802 513.438,126.522C511.698,122.682 508.638,121.062 504.318,121.062C501.318,121.062 497.658,122.322 495.138,126.102L495.018,126.102L495.018,121.782L487.518,121.782L487.518,152.682Z" style="fill:rgb(35,31,32);fill-rule:nonzero;"/>
        <path d="M549.077,137.142C549.077,132.822 551.117,127.302 556.277,127.302C561.497,127.302 562.937,133.002 562.937,137.142C562.937,141.402 561.437,147.162 556.157,147.162C550.817,147.162 549.077,141.522 549.077,137.142ZM540.977,152.682L548.777,152.682L548.777,148.902L548.897,148.902C551.237,152.202 554.957,153.402 558.377,153.402C567.857,153.402 571.337,145.602 571.337,137.142C571.337,128.622 567.857,121.062 558.377,121.062C554.177,121.062 551.357,122.802 549.137,125.742L549.017,125.742L549.017,107.682L540.977,107.682L540.977,152.682Z" style="fill:rgb(35,31,32);fill-rule:nonzero;"/>
        <path d="M583.337,134.202C583.697,130.062 585.977,126.942 590.477,126.942C594.977,126.942 596.777,130.302 597.017,134.202L583.337,134.202ZM602.417,144.402C599.417,146.082 596.057,147.522 592.157,147.522C587.177,147.522 583.697,144.702 583.337,139.722L604.697,139.722C604.697,128.922 601.457,121.062 589.997,121.062C580.397,121.062 575.657,128.442 575.657,137.382C575.657,147.522 581.597,153.402 591.797,153.402C596.117,153.402 599.477,152.562 602.417,150.942L602.417,144.402Z" style="fill:rgb(35,31,32);fill-rule:nonzero;"/>
        <path d="M611.177,152.682L619.217,152.682L619.217,141.342C619.217,136.902 619.217,128.742 625.757,128.742C627.197,128.742 628.637,128.982 629.357,129.402L629.357,121.302C628.517,121.062 627.677,121.062 626.897,121.062C622.097,121.062 618.797,125.922 618.437,128.802L618.317,128.802L618.317,121.782L611.177,121.782L611.177,152.682Z" style="fill:rgb(35,31,32);fill-rule:nonzero;"/>
        <path d="M4.86,213.681L13.26,213.681L13.26,195.321L27.42,195.321L27.42,188.721L13.26,188.721L13.26,178.401L28.14,178.401L28.14,171.801L4.86,171.801L4.86,213.681Z" style="fill:rgb(35,31,32);fill-rule:nonzero;"/>
        <path d="M32.16,198.441C32.16,207.321 38.1,214.401 48.3,214.401C58.56,214.401 64.5,207.321 64.5,198.441C64.5,188.241 57.48,182.061 48.3,182.061C39.18,182.061 32.16,188.241 32.16,198.441ZM40.56,197.481C40.56,192.861 43.08,188.301 48.3,188.301C53.58,188.301 56.1,192.741 56.1,197.481C56.1,202.641 54.48,208.161 48.3,208.161C42.18,208.161 40.56,202.581 40.56,197.481Z" style="fill:rgb(35,31,32);fill-rule:nonzero;"/>
        <path d="M70.98,213.681L79.02,213.681L79.02,202.341C79.02,197.901 79.02,189.741 85.56,189.741C87,189.741 88.44,189.981 89.16,190.401L89.16,182.301C88.32,182.061 87.48,182.061 86.7,182.061C81.9,182.061 78.6,186.921 78.24,189.801L78.12,189.801L78.12,182.781L70.98,182.781L70.98,213.681Z" style="fill:rgb(35,31,32);fill-rule:nonzero;"/>
        <path d="M98.769,195.201C99.129,191.061 101.409,187.941 105.909,187.941C110.409,187.941 112.209,191.301 112.449,195.201L98.769,195.201ZM117.849,205.401C114.849,207.081 111.489,208.521 107.589,208.521C102.609,208.521 99.129,205.701 98.769,200.721L120.129,200.721C120.129,189.921 116.889,182.061 105.429,182.061C95.829,182.061 91.089,189.441 91.089,198.381C91.089,208.521 97.029,214.401 107.229,214.401C111.549,214.401 114.909,213.561 117.849,211.941L117.849,205.401Z" style="fill:rgb(35,31,32);fill-rule:nonzero;"/>
        <path d="M126.429,213.681L134.469,213.681L134.469,198.561C134.469,194.601 135.729,188.301 141.549,188.301C146.709,188.301 146.769,193.401 146.769,197.181L146.769,213.681L154.809,213.681L154.809,194.181C154.809,187.221 151.629,182.061 144.309,182.061C140.109,182.061 136.689,183.441 134.169,186.981L134.049,186.981L134.049,182.781L126.429,182.781L126.429,213.681Z" style="fill:rgb(35,31,32);fill-rule:nonzero;"/>
        <path d="M181.989,183.201C179.469,182.661 177.009,182.061 173.229,182.061C166.929,182.061 161.109,185.001 161.109,191.661C161.109,202.821 175.089,198.681 175.089,204.741C175.089,207.741 171.849,208.521 169.809,208.521C167.049,208.521 164.409,207.741 161.889,206.481L161.409,213.081C164.349,213.861 167.469,214.401 170.529,214.401C177.069,214.401 183.489,211.521 183.489,204.321C183.489,193.161 169.509,196.281 169.509,191.361C169.509,188.721 172.089,187.941 174.249,187.941C177.189,187.941 178.989,188.421 181.449,189.261L181.989,183.201Z" style="fill:rgb(35,31,32);fill-rule:nonzero;"/>
        <path d="M189.909,213.681L197.949,213.681L197.949,182.781L189.909,182.781L189.909,213.681ZM189.909,177.141L197.949,177.141L197.949,169.461L189.909,169.461L189.909,177.141Z" style="fill:rgb(35,31,32);fill-rule:nonzero;"/>
        <path d="M227.169,183.081C224.949,182.421 222.609,182.061 219.369,182.061C209.709,182.061 204.429,189.141 204.429,198.081C204.429,207.501 209.529,214.401 219.669,214.401C222.969,214.401 225.369,214.101 227.709,213.381L227.349,206.721C225.969,207.321 223.449,208.161 221.169,208.161C215.529,208.161 212.829,203.781 212.829,198.081C212.829,192.261 216.009,188.301 220.989,188.301C223.449,188.301 225.009,188.781 226.449,189.441L227.169,183.081Z" style="fill:rgb(35,31,32);fill-rule:nonzero;"/>
        <path d="M280.569,206.061C278.589,207.081 274.689,207.801 271.389,207.801C262.449,207.801 257.169,201.381 257.169,192.861C257.169,184.281 262.569,177.681 271.209,177.681C274.209,177.681 277.089,178.101 280.269,179.901L280.869,172.821C277.809,171.621 274.149,171.081 271.389,171.081C257.169,171.081 248.409,179.121 248.409,193.461C248.409,207.621 257.829,214.401 271.389,214.401C274.569,214.401 277.869,213.801 280.929,213.081L280.569,206.061Z" style="fill:rgb(35,31,32);fill-rule:nonzero;"/>
        <path d="M309.789,197.481L297.549,197.481L303.609,180.201L303.729,180.201L309.789,197.481ZM282.789,213.681L291.489,213.681L295.149,204.081L312.129,204.081L315.729,213.681L325.029,213.681L308.589,171.801L299.109,171.801L282.789,213.681Z" style="fill:rgb(35,31,32);fill-rule:nonzero;"/>
        <path d="M330.427,213.681L338.467,213.681L338.467,179.241L338.587,179.121L349.867,213.681L357.907,213.681L369.187,179.121L369.307,179.121L369.307,213.681L377.347,213.681L377.347,171.801L363.907,171.801L353.947,203.541L353.827,203.541L343.867,171.801L330.427,171.801L330.427,213.681Z" style="fill:rgb(35,31,32);fill-rule:nonzero;"/>
        <path d="M387.066,213.682L395.466,213.682L395.466,195.322L412.266,195.322L412.266,213.682L420.666,213.682L420.666,171.802L412.266,171.802L412.266,188.722L395.466,188.722L395.466,171.802L387.066,171.802L387.066,213.682Z" style="fill:rgb(35,31,32);fill-rule:nonzero;"/>
        <path d="M453.665,172.582C450.605,171.562 447.245,171.082 443.645,171.082C436.265,171.082 429.005,174.502 429.005,183.862C429.005,197.722 447.365,194.422 447.365,202.402C447.365,206.182 443.105,207.802 439.925,207.802C436.625,207.802 433.325,206.782 430.445,205.222L429.665,212.782C433.805,213.802 435.845,214.402 440.405,214.402C448.865,214.402 456.125,210.922 456.125,201.742C456.125,187.702 437.765,190.762 437.765,183.502C437.765,178.942 441.485,177.682 444.365,177.682C447.305,177.682 450.245,178.342 452.885,179.482L453.665,172.582Z" style="fill:rgb(35,31,32);fill-rule:nonzero;"/>
    </g>
</svg>
