<?xml version="1.0" encoding="utf-8"?>
<!-- Generator: Adobe Illustrator 28.2.0, SVG Export Plug-In . SVG Version: 6.00 Build 0)  -->
<svg version="1.1" id="Layer_1" xmlns:serif="http://www.serif.com/"
	 xmlns="http://www.w3.org/2000/svg" xmlns:xlink="http://www.w3.org/1999/xlink" x="0px" y="0px" viewBox="0 0 595.3 841.9"
	 style="enable-background:new 0 0 595.3 841.9;" xml:space="preserve">
<style type="text/css">
	.st0{fill:#FFFFFF;}
</style>
<g transform="matrix(1,0,0,1,4.7905e-06,0)">
	<g id="Group_2">
		<g id="Group_1">
			<g id="Path_1" transform="matrix(1,0,0,1,-661.995,-484.226)">
				<path class="st0" d="M743.5,942.2h-27.7c-2.6,0-4.8-2.2-4.8-4.8V877c0-2.6,2.2-4.8,4.8-4.8h27.7c2.6,0,4.8,2.2,4.8,4.8v60.4
					C748.2,940,746.1,942.2,743.5,942.2"/>
			</g>
			<g id="Path_2" transform="matrix(1,0,0,1,-661.995,-447.939)">
				<path class="st0" d="M748.2,810.8c0,10.2-8.4,18.6-18.6,18.6s-18.6-8.4-18.6-18.6c0-10.2,8.4-18.6,18.6-18.6
					S748.2,800.6,748.2,810.8"/>
			</g>
			<g id="Path_3" transform="matrix(1,0,0,1,-621.538,-502.304)">
				<path class="st0" d="M655,960.2h-29.4c-2.2,0-4-1.8-4-4v-40.2c0-2.2,1.8-4,4-4H655c2.2,0,4,1.8,4,4v40.2
					C659,958.5,657.2,960.2,655,960.2"/>
			</g>
			<g id="Path_4" transform="matrix(1,0,0,1,-621.54,-466.019)">
				<path class="st0" d="M659,850.7c0,10.2-8.4,18.6-18.6,18.6c-10.2,0-18.6-8.4-18.6-18.6c0-10.2,8.4-18.6,18.6-18.6
					C650.6,832.1,659,840.5,659,850.7"/>
			</g>
			<g id="Path_5" transform="matrix(1,0,0,1,-702.634,-468.697)">
				<path class="st0" d="M832.5,926.6H806c-3,0-5.4-2.4-5.4-5.4v-77.9c0-3,2.4-5.4,5.4-5.4h26.5c3,0,5.4,2.4,5.4,5.4v77.9
					C837.9,924.2,835.5,926.6,832.5,926.6"/>
			</g>
			<g id="Path_6" transform="matrix(1,0,0,1,-702.635,-432.411)">
				<path class="st0" d="M837.9,776.6c0,10.2-8.4,18.6-18.6,18.6c-10.2,0-18.6-8.4-18.6-18.6c0-10.2,8.4-18.6,18.6-18.6
					C829.5,757.9,837.9,766.3,837.9,776.6"/>
			</g>
			<g id="Path_7" transform="matrix(1,0,0,1,-770.803,-468.955)">
				<path class="st0" d="M951,840.9c0-1.3,1.1-2.4,2.4-2.4h0h30.3c0.1,0,0.2,0,0.4,0c15.4,0,28,12.7,28,28c0,15.4-12.7,28-28,28
					c-0.1,0-0.2,0-0.2,0h-13.2v29.6c0,1.3-1.1,2.3-2.4,2.4h-14.8h0c-1.3,0-2.4-1.1-2.4-2.4L951,840.9z M982.6,876.3
					C982.6,876.3,982.6,876.3,982.6,876.3c5.5,0,9.9-4.5,9.9-9.9c0,0,0,0,0-0.1c-0.2-5.2-4.4-9.3-9.6-9.3c-0.1,0-0.2,0-0.3,0h-11.9
					v19.2H982.6z"/>
			</g>
			<g id="Path_8" transform="matrix(1,0,0,1,-837.328,-467.912)">
				<path class="st0" d="M1143.2,836.2c11.3-0.3,22.3,3.9,30.4,11.7c0.5,0.4,0.9,1.1,0.9,1.8c0,0.6-0.3,1.3-0.7,1.7l-9.8,10.2
					c-0.4,0.4-1,0.7-1.6,0.7c-0.6,0-1.2-0.2-1.6-0.7c-4.7-4.1-10.7-6.4-17-6.4c-13.7,0.6-24.6,12-24.6,25.7
					c0,13.7,11,25.2,24.7,25.7c6.1,0,12.1-2.1,16.9-6c1-0.8,2.4-0.7,3.3,0.1l9.8,10.4c0.8,1,0.8,2.5-0.1,3.4
					c-8.2,7.9-19.2,12.3-30.6,12.2c-0.4,0-0.8,0-1.1,0c-24.8,0-45.3-20.4-45.3-45.3c0-24.8,20.4-45.3,45.3-45.3
					C1142.4,836.2,1142.8,836.2,1143.2,836.2"/>
			</g>
			<g id="Path_9" transform="matrix(1,0,0,1,-918.63,-467.912)">
				<path class="st0" d="M1291.4,838.3c0.2-1.1,1.1-2,2.3-2h2c0.9,0.1,1.7,0.5,2.1,1.3l29.2,54.3h0.3l29.2-54.3
					c0.5-0.7,1.3-1.2,2.1-1.3h2c1.1,0.1,2.1,0.9,2.3,2l14.2,84.5c0,0.2,0,0.3,0,0.5c0,1.3-1,2.3-2.3,2.3c-0.1,0-0.1,0-0.1,0h-14.8
					c-1.2,0-2.1-0.9-2.4-2l-5.7-38.9h-0.3l-21.1,40.8c-0.5,0.8-1.2,1.3-2.1,1.4h-2.3c-0.9-0.1-1.7-0.6-2.1-1.4l-21.3-40.8h-0.3
					l-5.5,38.9c-0.2,1.2-1.2,2-2.4,2h-14.8c0,0-0.1,0-0.1,0c-1.3,0-2.3-1-2.3-2.3c0-0.2,0-0.3,0.1-0.5L1291.4,838.3z"/>
			</g>
			<g id="Rectangle_1" transform="matrix(1,0,0,1,150.557,13.625)">
				<path class="st0" d="M345.3,356h2.3c4.8,0,8.8,4,8.8,8.8v70.4c0,4.8-4,8.8-8.8,8.8h-2.3c-4.8,0-8.8-4-8.8-8.8v-70.4
					C336.5,359.9,340.5,356,345.3,356z"/>
			</g>
			<g id="Path_10" transform="matrix(1,0,0,1,-1065.37,-467.912)">
				<path class="st0" d="M1601.5,913.6l5.9-10.4c1-1.3,2.9-1.6,4.3-0.8c0.5,0.3,9.6,6.9,17.9,6.9c0.3,0,0.6,0,0.8,0
					c4.2,0,7.7-3.4,7.9-7.6c0-5.3-4.4-9.3-12.9-12.7c-10.8-4.3-24.4-12.7-24.4-27.8c0-12.5,9.7-25,29.1-25
					c9.7,0.3,19.2,3.6,26.9,9.4c1.2,1,1.5,2.7,0.8,4l-6.4,9.7c-0.9,1.4-3.1,2.5-4.3,1.6c-1.1-0.6-10.3-7.5-18-7.5
					c-3.9-0.4-7.5,2.5-7.9,6.4c0,4.7,3.8,8.2,13.7,12.2c9.8,3.9,25.4,11.6,25.4,28.7c0,12.9-11.2,26-29.7,26
					c-16.4,0-25.4-6.8-28.3-9.7C1600.9,915.9,1600.5,915.4,1601.5,913.6"/>
			</g>
			<g id="Rectangle_2" transform="matrix(1,0,0,1,0,50.833)">
				<path class="st0" d="M1.4,439.1c0.7,0,1.4,0.6,1.4,1.4V462c0,0,0,0,0,0c0,0.7-0.6,1.3-1.3,1.3h0c-0.7,0-1.4-0.6-1.4-1.4
					c0,0,0,0,0,0v-21.6C0,439.7,0.6,439.1,1.4,439.1z"/>
			</g>
			<g id="Path_11" transform="matrix(1,0,0,1,-630.209,-568.464)">
				<path class="st0" d="M645.3,1058.6c0.1-0.3,0.3-0.5,0.6-0.5h0.6c0.3,0,0.5,0.1,0.6,0.4l6.9,19.1h0.2l6.8-19.1
					c0.1-0.2,0.3-0.4,0.6-0.4h0.6c0.3,0,0.5,0.2,0.6,0.5l4.5,23.3c0.1,0.5-0.1,0.8-0.6,0.8h-1.4c-0.3,0-0.5-0.2-0.6-0.5l-3.1-17.8
					h-0.1l-6.4,18.3c-0.1,0.2-0.3,0.4-0.6,0.4h-0.6c-0.2,0-0.5-0.2-0.6-0.4l-6.4-18.3h-0.1l-3,17.8c-0.1,0.3-0.3,0.5-0.6,0.5h-1.4
					c-0.5,0-0.7-0.3-0.6-0.8L645.3,1058.6z"/>
			</g>
			<g id="Path_12" transform="matrix(1,0,0,1,-658.588,-568.753)">
				<path class="st0" d="M703.4,1059.4c0-0.4,0.3-0.6,0.6-0.6h7.7c0,0,0,0,0,0c4.2,0,7.7,3.5,7.7,7.7c0,4.2-3.5,7.7-7.7,7.7h-5.7
					v8.1c0,0.3-0.3,0.6-0.6,0.6h-1.3c-0.4,0-0.6-0.3-0.6-0.6L703.4,1059.4z M711.6,1071.6c2.9,0,5.3-2.4,5.3-5.3
					c-0.1-2.8-2.5-5-5.3-5h-5.5v10.3L711.6,1071.6z"/>
			</g>
			<g id="Path_13" transform="matrix(1,0,0,1,-677.866,-568.754)">
				<path class="st0" d="M746,1059.4c0-0.4,0.3-0.6,0.6-0.6h9c0,0,0.1,0,0.1,0c4.1,0,7.4,3.3,7.4,7.4c-0.1,3.2-2.1,6-5.1,7.1
					l4.7,8.8c0.1,0.1,0.1,0.2,0.1,0.4c0,0.4-0.3,0.6-0.6,0.6c0,0,0,0-0.1,0h-1.8c-0.2,0-0.4-0.1-0.6-0.3l-4.6-9.2h-6.6v8.8
					c0,0.3-0.3,0.6-0.6,0.6h-1.4c-0.4,0-0.6-0.3-0.6-0.6L746,1059.4z M755.4,1071.2c2.7,0,5-2.2,5-5c0-2.7-2.2-5-5-5h-6.7v9.9H755.4
					z"/>
			</g>
			<g id="Path_14" transform="matrix(1,0,0,1,-697.546,-568.466)">
				<path class="st0" d="M801.8,1058.1C801.8,1058.1,801.8,1058.1,801.8,1058.1c6.9,0,12.5,5.6,12.5,12.5c0,6.8-5.6,12.5-12.5,12.5
					c-6.8,0-12.5-5.6-12.5-12.4c0,0,0,0,0-0.1C789.4,1063.7,795,1058.1,801.8,1058.1 M801.8,1080.6
					C801.8,1080.6,801.8,1080.6,801.8,1080.6c5.5,0,10.1-4.5,10.1-10c0-5.5-4.5-10-10-10c-5.5,0-10,4.5-10,10c0,0,0,0,0,0
					C791.8,1076.1,796.3,1080.6,801.8,1080.6"/>
			</g>
			<g id="Path_15" transform="matrix(1,0,0,1,-721.852,-568.753)">
				<path class="st0" d="M843.1,1059.6c0-0.1-0.1-0.2-0.1-0.3c0-0.3,0.3-0.6,0.6-0.6c0,0,0,0,0.1,0h1.4c0.3,0,0.5,0.1,0.6,0.4
					l8.6,19.4h0.1l8.6-19.4c0.1-0.2,0.3-0.4,0.6-0.4h1.4c0,0,0,0,0.1,0c0.3,0,0.6,0.3,0.6,0.6c0,0.1,0,0.2-0.1,0.3l-10.5,23.3
					c-0.1,0.2-0.3,0.4-0.6,0.4h-0.3c-0.2,0-0.5-0.2-0.6-0.4L843.1,1059.6z"/>
			</g>
			<g id="Rectangle_3" transform="matrix(1,0,0,1,46.404,50.833)">
				<path class="st0" d="M105.1,439.1c0.7,0,1.4,0.6,1.4,1.4V462c0,0,0,0,0,0c0,0.7-0.6,1.3-1.3,1.3c0,0,0,0,0,0
					c-0.7,0-1.3-0.6-1.3-1.3c0,0,0,0,0,0v-21.6C103.7,439.7,104.3,439.1,105.1,439.1z"/>
			</g>
			<g id="Path_16" transform="matrix(1,0,0,1,-756.126,-568.465)">
				<path class="st0" d="M918.6,1058.7c0-0.3,0.3-0.6,0.6-0.6h0.9l15.6,19.5h0.1v-18.5c0-0.4,0.3-0.6,0.6-0.6h1.2
					c0.3,0,0.6,0.3,0.6,0.6v23.3c0,0.3-0.3,0.6-0.6,0.6h-0.6l-15.9-19.9h0v18.9c0,0.4-0.3,0.6-0.6,0.6h-1.2c-0.3,0-0.6-0.3-0.6-0.6
					V1058.7z"/>
			</g>
			<g id="Path_17" transform="matrix(1,0,0,1,-779.053,-568.465)">
				<path class="st0" d="M981.7,1058.1c3.1,0,6.1,1.1,8.4,3.2c0.1,0.1,0.2,0.3,0.2,0.5c0,0.2-0.1,0.3-0.2,0.5c-0.3,0.3-0.7,0.6-1,1
					c-0.3,0.3-0.5,0.3-0.9,0c-1.8-1.6-4.1-2.6-6.6-2.7c-5.3,0.2-9.6,4.7-9.6,10c0,5.3,4.3,9.8,9.6,10c2.2,0,4.3-0.5,6.2-1.5v-4.9h-4
					c-0.3,0-0.6-0.3-0.6-0.6v-1.3c0-0.4,0.3-0.6,0.6-0.6h6c0.3,0,0.6,0.3,0.6,0.6v7.9c0,0.2-0.1,0.4-0.3,0.6
					c-2.6,1.5-5.6,2.3-8.6,2.3c-6.8,0-12.5-5.6-12.5-12.5S974.9,1058.1,981.7,1058.1"/>
			</g>
			<g id="Path_18" transform="matrix(1,0,0,1,-812.236,-568.753)">
				<path class="st0" d="M1042.4,1059.4c0-0.4,0.3-0.6,0.6-0.6h7.7c0,0,0,0,0,0c4.2,0,7.7,3.5,7.7,7.7c0,4.2-3.5,7.7-7.7,7.7h-5.7
					v8.1c0,0.3-0.3,0.6-0.6,0.6h-1.3c-0.4,0-0.6-0.3-0.6-0.6L1042.4,1059.4z M1050.6,1071.6c2.9,0,5.3-2.4,5.3-5.3
					c-0.1-2.8-2.5-5-5.3-5h-5.5v10.3H1050.6z"/>
			</g>
			<g id="Path_19" transform="matrix(1,0,0,1,-827.837,-568.465)">
				<path class="st0" d="M1076.9,1081.8l10.5-23.3c0.1-0.2,0.3-0.4,0.6-0.4h0.3c0.3,0,0.5,0.1,0.6,0.4l10.5,23.3
					c0,0.1,0.1,0.2,0.1,0.3c0,0.3-0.3,0.6-0.6,0.6c0,0,0,0-0.1,0h-1.4c-0.3,0-0.5-0.1-0.6-0.4l-2.6-5.7H1082l-2.5,5.7
					c-0.1,0.2-0.3,0.4-0.6,0.4h-1.4c0,0,0,0-0.1,0c-0.3,0-0.6-0.3-0.6-0.6C1076.8,1082,1076.8,1081.9,1076.9,1081.8 M1093.3,1074.4
					c-1.7-3.8-3.4-7.6-5.1-11.4h-0.3l-5.1,11.4H1093.3z"/>
			</g>
			<g id="Path_20" transform="matrix(1,0,0,1,-848.035,-568.753)">
				<path class="st0" d="M1128.1,1061h-6c-0.4,0-0.6-0.3-0.6-0.6v-1c0-0.4,0.3-0.6,0.6-0.6h14.7c0.4,0,0.6,0.3,0.6,0.6v1
					c0,0.4-0.3,0.6-0.6,0.6h-6v21.3c0,0.3-0.3,0.6-0.6,0.6h-1.3c-0.3,0-0.6-0.3-0.6-0.6V1061z"/>
			</g>
			<g id="Rectangle_4" transform="matrix(1,0,0,1,91.425,50.833)">
				<path class="st0" d="M205.7,439.1c0.7,0,1.4,0.6,1.4,1.4V462c0,0,0,0,0,0c0,0.7-0.6,1.3-1.3,1.3h0c-0.7,0-1.4-0.6-1.4-1.4
					c0,0,0,0,0,0v-21.5C204.4,439.7,205,439.1,205.7,439.1z"/>
			</g>
			<g id="Path_21" transform="matrix(1,0,0,1,-876.88,-568.753)">
				<path class="st0" d="M1185,1059.4c0-0.4,0.3-0.6,0.6-0.6h13.7c0.4,0,0.6,0.3,0.6,0.6v1c0,0.4-0.3,0.6-0.6,0.6h-11.6v8.5h9.9
					c0.3,0,0.6,0.3,0.6,0.6v1c0,0.4-0.3,0.6-0.6,0.6h-9.9v8.8h11.6c0.4,0,0.6,0.3,0.6,0.6v1c0,0.4-0.3,0.6-0.6,0.6h-13.7
					c-0.4,0-0.6-0.3-0.6-0.6V1059.4z"/>
			</g>
			<g id="Path_22" transform="matrix(1,0,0,1,-896.043,-568.465)">
				<path class="st0" d="M1227.3,1058.7c0-0.3,0.3-0.6,0.6-0.6h0.9l15.6,19.5h0.1v-18.5c0-0.4,0.3-0.6,0.6-0.6h1.2
					c0.4,0,0.6,0.3,0.6,0.6v23.3c0,0.3-0.3,0.6-0.6,0.6h-0.6l-15.9-19.9h0v18.9c0,0.4-0.3,0.6-0.6,0.6h-1.2c-0.3,0-0.6-0.3-0.6-0.6
					L1227.3,1058.7z"/>
			</g>
			<g id="Path_23" transform="matrix(1,0,0,1,-917.734,-568.753)">
				<path class="st0" d="M1281.8,1061h-6c-0.4,0-0.6-0.3-0.6-0.6v-1c0-0.4,0.3-0.6,0.6-0.6h14.7c0.4,0,0.6,0.3,0.6,0.6v1
					c0,0.4-0.3,0.6-0.6,0.6h-6v21.3c0,0.3-0.3,0.6-0.6,0.6h-1.3c-0.4,0-0.6-0.3-0.6-0.6L1281.8,1061z"/>
			</g>
			<g id="Path_24" transform="matrix(1,0,0,1,-942.958,-568.465)">
				<path class="st0" d="M1330.8,1059.3c0-0.1,0-0.2,0-0.2c0-0.3,0.3-0.6,0.6-0.6c0,0,0,0,0.1,0h1.5c0.3,0,0.5,0.2,0.6,0.5l4.8,17.9
					h0.1l5.8-18.4c0.1-0.2,0.3-0.4,0.6-0.4h0.6c0.2,0,0.5,0.1,0.6,0.4l5.9,18.4h0.1l4.7-17.9c0.1-0.3,0.3-0.5,0.6-0.5h1.5
					c0,0,0.1,0,0.1,0c0.3,0,0.6,0.3,0.6,0.6c0,0.1,0,0.2-0.1,0.2l-6.5,23.3c-0.1,0.3-0.3,0.5-0.6,0.5h-0.6c-0.2,0-0.5-0.2-0.6-0.4
					l-6-18.7h-0.2l-5.9,18.7c-0.1,0.2-0.3,0.4-0.6,0.4h-0.6c-0.3,0-0.5-0.2-0.6-0.5L1330.8,1059.3z"/>
			</g>
			<g id="Path_25" transform="matrix(1,0,0,1,-972.839,-568.753)">
				<path class="st0" d="M1396.7,1059.4c0-0.4,0.3-0.6,0.6-0.6h13.7c0.3,0,0.6,0.3,0.6,0.6v1c0,0.4-0.3,0.6-0.6,0.6h-11.7v8.5h10
					c0.4,0,0.6,0.3,0.6,0.6v1c0,0.4-0.3,0.6-0.6,0.6h-10v8.8h11.7c0.3,0,0.6,0.3,0.6,0.6v1c0,0.4-0.3,0.6-0.6,0.6h-13.7
					c-0.4,0-0.6-0.3-0.6-0.6V1059.4z"/>
			</g>
			<g id="Path_26" transform="matrix(1,0,0,1,-992.002,-568.753)">
				<path class="st0" d="M1439,1059.4c0-0.4,0.3-0.6,0.6-0.6h1.4c0.4,0,0.6,0.3,0.6,0.6v21.3h10c0.3,0,0.6,0.3,0.6,0.6v1
					c0,0.4-0.3,0.6-0.6,0.6h-12c-0.4,0-0.6-0.3-0.6-0.6V1059.4z"/>
			</g>
			<g id="Path_27" transform="matrix(1,0,0,1,-1008.26,-568.753)">
				<path class="st0" d="M1474.9,1059.4c0-0.4,0.3-0.6,0.6-0.6h1.4c0.4,0,0.6,0.3,0.6,0.6v21.3h10c0.4,0,0.6,0.3,0.6,0.6v1
					c0,0.4-0.3,0.6-0.6,0.6h-12c-0.4,0-0.6-0.3-0.6-0.6V1059.4z"/>
			</g>
			<g id="Path_28" transform="matrix(1,0,0,1,-1024.53,-568.753)">
				<path class="st0" d="M1510.7,1059.4c0-0.4,0.3-0.6,0.6-0.6h7.6c0.2,0,0.5,0,0.7,0c3.5,0,6.3,2.9,6.3,6.3c0,2.4-1.3,4.5-3.4,5.6
					c2.4,0.8,4.1,3.1,4.2,5.6c-0.1,3.7-3.2,6.7-6.9,6.7c-0.2,0-0.5,0-0.7,0h-7.9c-0.4,0-0.6-0.3-0.6-0.6V1059.4z M1519.6,1080.6
					C1519.6,1080.6,1519.6,1080.6,1519.6,1080.6c2.5,0,4.4-1.9,4.4-4.3c0,0,0-0.1,0-0.1c-0.2-2.4-2.2-4.3-4.6-4.3
					c-0.1,0-0.3,0-0.4,0h-5.7v8.7H1519.6z M1519,1069.6c0.1,0,0.1,0,0.2,0c2.2,0,4-1.8,4-4c0-0.1,0-0.2,0-0.3c0-0.1,0-0.2,0-0.3
					c0-2.1-1.7-3.8-3.9-3.8c-0.1,0-0.2,0-0.3,0h-5.6v8.5H1519z"/>
			</g>
			<g id="Path_29" transform="matrix(1,0,0,1,-1044.64,-568.753)">
				<path class="st0" d="M1555.1,1059.4c0-0.4,0.3-0.6,0.6-0.6h13.7c0.4,0,0.6,0.3,0.6,0.6v1c0,0.4-0.3,0.6-0.6,0.6h-11.6v8.5h10
					c0.3,0,0.6,0.3,0.6,0.6v1c0,0.4-0.3,0.6-0.6,0.6h-10v8.8h11.6c0.4,0,0.6,0.3,0.6,0.6v1c0,0.4-0.3,0.6-0.6,0.6h-13.7
					c-0.4,0-0.6-0.3-0.6-0.6V1059.4z"/>
			</g>
			<g id="Rectangle_5" transform="matrix(1,0,0,1,164.94,50.833)">
				<path class="st0" d="M370,439.1c0.7,0,1.4,0.6,1.4,1.4V462c0,0,0,0,0,0c0,0.7-0.6,1.3-1.3,1.3h0c-0.7,0-1.4-0.6-1.4-1.4
					c0,0,0,0,0,0v-21.6C368.7,439.7,369.3,439.1,370,439.1z"/>
			</g>
			<g id="Path_30" transform="matrix(1,0,0,1,-1074.06,-568.465)">
				<path class="st0" d="M1620,1058.7c0-0.3,0.3-0.6,0.6-0.6h0.9l15.6,19.5h0.1v-18.5c0-0.4,0.3-0.6,0.6-0.6h1.2
					c0.4,0,0.6,0.3,0.6,0.6v23.3c0,0.3-0.3,0.6-0.6,0.6h-0.6l-15.9-19.9h0v18.9c0,0.4-0.3,0.6-0.7,0.6h-1.2c-0.4,0-0.6-0.3-0.6-0.6
					V1058.7z"/>
			</g>
			<g id="Path_31" transform="matrix(1,0,0,1,-1096.98,-568.465)">
				<path class="st0" d="M1683.1,1058.1c3.1,0,6.1,1.1,8.4,3.2c0.2,0.1,0.2,0.3,0.2,0.5c0,0.2-0.1,0.3-0.2,0.5c-0.3,0.3-0.7,0.6-1,1
					c-0.3,0.3-0.5,0.3-0.9,0c-1.8-1.6-4.1-2.6-6.6-2.7c-5.3,0.2-9.6,4.7-9.6,10c0,5.3,4.3,9.8,9.6,10c2.2,0,4.3-0.5,6.2-1.5v-4.9h-4
					c-0.4,0-0.6-0.3-0.6-0.6v-1.3c0-0.4,0.3-0.6,0.6-0.6h6c0.4,0,0.6,0.3,0.6,0.6v7.9c0,0.2-0.1,0.4-0.3,0.6
					c-2.6,1.5-5.6,2.3-8.6,2.3c-6.8,0-12.5-5.6-12.5-12.5S1676.3,1058.1,1683.1,1058.1"/>
			</g>
		</g>
	</g>
</g>
</svg>
