<svg xmlns="http://www.w3.org/2000/svg" viewBox="0 0 406.31 87.3"><title>logo-main</title><path d="M87.09 4.32l-1.9 5.84a14.92 14.92 0 0 0-6.5-1.34c-3.12 0-5.66.46-5.66 2.82 0 4.16 11.44 2.6 11.44 11.51 0 8.11-7.56 10.21-14.4 10.21A33 33 0 0 1 61 31.83l1.86-6a15.41 15.41 0 0 0 7.26 1.68c2.45 0 6.29-.46 6.29-3.49 0-4.71-11.44-2.94-11.44-11.21C64.92 5.28 71.59 3 78.05 3c3.63 0 7.05.38 9 1.3m-22.68-.8l-6.08 29.34H50.4L53 20.28h-9.32l-2.62 12.56h-7.89l6.12-29.33h7.89l-2.32 11.22h9.34l2.32-11.22h7.89zm-28 0l-6.24 29.34h-9.8l-6.16-20.29h-.09L10 32.84H2.55l6.3-29.33h9.83l6 20.34h.08l4.19-20.34h7.43zM90.48 0H0v36.43h90.48V0z" fill="#005eb8"/><path d="M132.91 60.84c0 2.62 1.49 4.29 4.19 4.29a9.05 9.05 0 0 0 2.55-.31l-.1-2.72a3.08 3.08 0 0 1-1.57.36c-1.31 0-1.62-1.05-1.62-2.18V54.1h3.06v-2.52h-3.06v-3.75l-3.44 1.11v2.65h-2.54v2.51h2.54v6.74zm-4.45-9.07a15.87 15.87 0 0 0-3.75-.49c-2.7 0-5.19 1.26-5.19 4.11 0 4.78 6 3 6 5.6 0 1.28-1.39 1.62-2.26 1.62a7.56 7.56 0 0 1-3.39-.87l-.21 2.83a15.45 15.45 0 0 0 3.91.57c2.8 0 5.55-1.23 5.55-4.32 0-4.78-6-3.45-6-5.55 0-1.13 1.11-1.46 2-1.46a8.47 8.47 0 0 1 3.09.57zm-11.77 9.51a8.93 8.93 0 0 1-4.4 1.34 3.46 3.46 0 0 1-3.78-3.34h9.15c0-4.63-1.39-8-6.3-8-4.11 0-6.14 3.16-6.14 7 0 4.34 2.54 6.86 6.92 6.86a9.09 9.09 0 0 0 4.55-1.05v-2.8zm-8.18-4.37c.15-1.77 1.13-3.11 3.06-3.11s2.7 1.44 2.8 3.11h-5.86zm-24.44 7.91h4.65l3.19-14.34H92l3.2 14.34h4.63l4.68-17.94H101l-3.36 14.34h-.05l-3.16-14.34h-4.89l-3.06 14.34h-.05l-3.34-14.34h-3.78zm-26.07 0h3.44v-6.47c0-1.7.54-4.4 3-4.4 2.21 0 2.24 2.18 2.24 3.8v7.07h3.44v-8.35c0-3-1.36-5.19-4.5-5.19a4.93 4.93 0 0 0-4.16 2.11h-.04v-7.85H58v19.28zm-8.87-4c0 2.62 1.49 4.29 4.19 4.29a9.05 9.05 0 0 0 2.55-.31l-.1-2.72a3.08 3.08 0 0 1-1.57.36c-1.31 0-1.62-1.05-1.62-2.18V54.1h3.06v-2.52h-3.09v-3.75l-3.44 1.11v2.65h-2.55v2.51h2.55v6.74zm-4.68-9.25H41v6.48c0 1.7-.54 4.4-3 4.4-2.21 0-2.24-2.18-2.24-3.8v-7.07h-3.49v8.35c0 3 1.36 5.19 4.5 5.19A5.52 5.52 0 0 0 41.11 63h.05v1.8h3.26V51.58zm-25.11 6.3c0-2 1.08-3.93 3.32-3.93S26 55.85 26 57.88c0 2.21-.69 4.58-3.34 4.58s-3.32-2.39-3.32-4.58m-3.6.41a6.54 6.54 0 0 0 6.92 6.84 6.54 6.54 0 0 0 6.94-6.84 6.63 6.63 0 0 0-6.94-7 6.62 6.62 0 0 0-6.92 7m-3.19-11.08a13.55 13.55 0 0 0-4.29-.64C5.1 46.57 2 48 2 52c0 6 7.85 4.57 7.85 8 0 1.62-1.83 2.31-3.19 2.31A8.65 8.65 0 0 1 2.6 61.2l-.33 3.24a15.81 15.81 0 0 0 4.6.69c3.62 0 6.73-1.49 6.73-5.42 0-6-7.87-4.7-7.87-7.81 0-2 1.59-2.49 2.83-2.49a9.29 9.29 0 0 1 3.65.77zM399.86 54c2.24 0 2.85 2.44 2.85 4.22s-.64 4.29-2.9 4.29-3-2.42-3-4.29.84-4.22 3.05-4.22m-6.56 16.26h3.44v-6.92h.05a4.52 4.52 0 0 0 3.88 1.83c4.14 0 5.63-3.34 5.63-7s-1.49-6.89-5.55-6.89a4.49 4.49 0 0 0-4.11 2.18h-.05v-1.84h-3.29v18.64zm-7.07-21.05h3.44v-3.29h-3.44v3.29zm0 15.65h3.44V51.62h-3.44v13.24zm-15.78 0h3.44v-6.48c0-1.7.54-4.4 3-4.4 2.21 0 2.24 2.18 2.24 3.8v7.07h3.45v-8.34c0-3-1.36-5.19-4.5-5.19a4.93 4.93 0 0 0-4.17 2.11h-.01v-7.85h-3.44v19.28zm-2.8-13.06a15.88 15.88 0 0 0-3.75-.49c-2.7 0-5.19 1.26-5.19 4.11 0 4.78 6 3 6 5.6 0 1.28-1.39 1.62-2.26 1.62a7.56 7.56 0 0 1-3.39-.87l-.21 2.83a15.45 15.45 0 0 0 3.91.57c2.8 0 5.55-1.23 5.55-4.32 0-4.78-6-3.45-6-5.55 0-1.13 1.1-1.46 2-1.46a8.45 8.45 0 0 1 3.09.57zm-18.53 13.06h3.44V60c0-1.9 0-5.4 2.8-5.4a3.51 3.51 0 0 1 1.54.28v-3.46a3.75 3.75 0 0 0-1.05-.1 4.05 4.05 0 0 0-3.62 3.32h-.05v-3h-3.06v13.22zm-3.75-3.55a8.93 8.93 0 0 1-4.4 1.34 3.46 3.46 0 0 1-3.78-3.34h9.15c0-4.63-1.39-8-6.3-8-4.11 0-6.15 3.16-6.15 7 0 4.34 2.55 6.86 6.92 6.86a9.08 9.08 0 0 0 4.55-1.05v-2.8zm-8.17-4.37c.15-1.77 1.13-3.11 3.06-3.11s2.7 1.44 2.8 3.11h-5.86zM319 64.86h3.44v-6.48c0-1.7.54-4.4 3-4.4 2.21 0 2.23 2.18 2.23 3.8v7.07h3.45v-8.34c0-3-1.36-5.19-4.5-5.19a4.94 4.94 0 0 0-4.34 2.11h.02v-1.8H319v13.23zm-8.35-4c0 2.62 1.49 4.29 4.19 4.29a9.05 9.05 0 0 0 2.55-.31l-.1-2.72a3.08 3.08 0 0 1-1.57.36c-1.31 0-1.62-1.05-1.62-2.18v-6.16h3.06v-2.52h-3.06v-3.75L310.68 49v2.65h-2.55v2.52h2.55v6.74zm-12.6 4h3.44V60c0-1.9 0-5.4 2.8-5.4a3.51 3.51 0 0 1 1.54.28v-3.46a3.75 3.75 0 0 0-1.05-.1 4.05 4.05 0 0 0-3.62 3.32h-.05v-3h-3.06v13.22zM286.67 61c0-2 2.29-2.29 3.83-2.29h1.5a4.39 4.39 0 0 1-.72 2.73 2.93 2.93 0 0 1-2.42 1.18c-1.23 0-2.18-.49-2.18-1.62m-1.75-5.76a6.93 6.93 0 0 1 4.07-1.41c2 0 3 .72 3 2.85h-1.9a10.51 10.51 0 0 0-4.45.77 3.89 3.89 0 0 0-2.26 3.78c0 2.52 2.29 3.93 4.63 3.93a4.73 4.73 0 0 0 4.09-2.29h.05a15.89 15.89 0 0 0 .15 2h3c-.08-1-.13-2-.15-3s-.05-2-.05-3.32v-1.7c0-3.91-1.67-5.58-5.71-5.58a11.85 11.85 0 0 0-4.6 1zm-15 9.59h3.6V58h1.52c3.86 0 6.91-1.52 6.91-5.71s-3.57-5.42-7.48-5.42h-4.55v17.99zm3.6-15.12h1.26c1.85 0 3.42.72 3.42 2.8s-1.62 2.67-3.42 2.67h-1.26v-5.43zm-14.41 11.6a8.93 8.93 0 0 1-4.4 1.34 3.46 3.46 0 0 1-3.78-3.34h9.15c0-4.63-1.39-8-6.3-8-4.11 0-6.14 3.16-6.14 7 0 4.34 2.54 6.86 6.91 6.86a9.09 9.09 0 0 0 4.55-1.05v-2.8zm-8.18-4.37c.15-1.77 1.13-3.11 3.06-3.11s2.7 1.44 2.8 3.11h-5.86zM239 64.86h3.44V60c0-1.9 0-5.4 2.8-5.4a3.51 3.51 0 0 1 1.54.28v-3.46a3.75 3.75 0 0 0-1.05-.1 4.05 4.05 0 0 0-3.62 3.32h-.01v-3H239v13.22zm-7.15-15.65h3.45v-3.29h-3.45v3.29zm0 15.65h3.45V51.62h-3.45v13.24zm-15.78 0h3.45v-6.48c0-1.7.54-4.4 3-4.4 2.21 0 2.24 2.18 2.24 3.8v7.07h3.44v-8.34c0-3-1.36-5.19-4.5-5.19a4.93 4.93 0 0 0-4.16 2.11h-.05v-7.85h-3.45v19.28zm-3.28-13.06a15.89 15.89 0 0 0-3.75-.49c-2.7 0-5.19 1.26-5.19 4.11 0 4.78 6 3 6 5.6 0 1.28-1.39 1.62-2.26 1.62a7.56 7.56 0 0 1-3.39-.87l-.2 2.83a15.45 15.45 0 0 0 3.91.57c2.8 0 5.55-1.23 5.55-4.32 0-4.78-6-3.45-6-5.55 0-1.13 1.1-1.46 2-1.46a8.44 8.44 0 0 1 3.08.57zm-22.31 13.06h3.45v-6.43h.07l4.42 6.43h4.37l-5.55-7.33 4.94-5.91h-4.06l-4.12 5.3h-.05V45.58h-3.45v19.28zm-10 0h3.45V60c0-1.9 0-5.4 2.8-5.4a3.5 3.5 0 0 1 1.54.28v-3.46a3.75 3.75 0 0 0-1.05-.1 4.05 4.05 0 0 0-3.62 3.32h-.05v-3h-3.06v13.22zm-13-6.94c0-2 1.08-3.93 3.32-3.93s3.34 1.9 3.34 3.93c0 2.21-.69 4.58-3.34 4.58s-3.32-2.39-3.32-4.58m-3.6.41a6.93 6.93 0 0 0 13.86 0 6.93 6.93 0 1 0-13.86 0M155 64.86h3.6v-7.09l6.4-10.85h-3.8l-4.32 7.53-4.24-7.53h-4.22L155 57.77v7.09z"/><path d="M170.18 84.44A2.6 2.6 0 0 0 173 87.3a6 6 0 0 0 1.7-.21l-.07-1.82a2 2 0 0 1-1 .24c-.87 0-1.08-.7-1.08-1.46v-4.1h2v-1.68h-2v-2.5l-2.3.74v1.76h-1.7v1.68h1.7v4.49zm-3-6.05a10.59 10.59 0 0 0-2.5-.33c-1.8 0-3.46.84-3.46 2.74 0 3.19 4 2 4 3.74a1.3 1.3 0 0 1-1.51 1.08 5.05 5.05 0 0 1-2.26-.58l-.14 1.88a10.29 10.29 0 0 0 2.61.38c1.87 0 3.7-.82 3.7-2.88 0-3.19-4-2.3-4-3.7a1.14 1.14 0 0 1 1.35-1 5.63 5.63 0 0 1 2.06.38zm-7.76-.12h-2.3v4.32c0 1.13-.36 2.93-2 2.93-1.47 0-1.49-1.46-1.49-2.54v-4.71h-2.3v5.57c0 2 .91 3.46 3 3.46a3.68 3.68 0 0 0 2.9-1.41v1.2h2.18v-8.82zM144.7 87.1h2.3v-3.25c0-1.27 0-3.6 1.87-3.6a2.34 2.34 0 0 1 1 .19v-2.31a2.48 2.48 0 0 0-.7-.07 2.7 2.7 0 0 0-2.42 2.21v-2h-2v8.83zm-5.62 0h2.4V77h3.43v-1.87h-9.26V77h3.43v10.09zm-17.62 0h2.3v-4.33c0-1.13.36-2.93 2-2.93 1.47 0 1.49 1.46 1.49 2.54v4.71h2.3v-5.57c0-2-.91-3.46-3-3.46a3.3 3.3 0 0 0-2.9 1.41v-1.2h-2.18v8.83zm-8.64-4.63a2.34 2.34 0 0 1 2.21-2.62c1.51 0 2.23 1.27 2.23 2.62s-.46 3-2.23 3-2.21-1.59-2.21-3m-2.4.27a4.62 4.62 0 0 0 9.24 0 4.62 4.62 0 1 0-9.24 0m-4.15-6.08h2.3v-2.2h-2.3v2.19zm0 10.44h2.3v-8.83h-2.3v8.83zm-6-2.66a2.6 2.6 0 0 0 2.79 2.86 6 6 0 0 0 1.7-.21l-.07-1.82a2 2 0 0 1-1 .24c-.87 0-1.08-.7-1.08-1.46v-4.1h2v-1.68h-2v-2.5l-2.3.74v1.76h-1.7v1.68h1.7v4.49zm-8.65.1c0-1.35 1.53-1.53 2.55-1.53h1a2.93 2.93 0 0 1-.48 1.82 2 2 0 0 1-1.61.79 1.2 1.2 0 0 1-1.46-1.08m-1.1-3.84a4.62 4.62 0 0 1 2.72-1c1.35 0 2 .48 2 1.9H94a7 7 0 0 0-3 .51 2.59 2.59 0 0 0-1.51 2.52 2.82 2.82 0 0 0 3.08 2.62 3.15 3.15 0 0 0 2.72-1.53 10.69 10.69 0 0 0 .1 1.32h2c-.05-.68-.09-1.3-.1-2s0-1.32 0-2.21v-1.05c0-2.6-1.11-3.72-3.8-3.72a7.89 7.89 0 0 0-3.07.67zm-5.06 6.39h2.23V74.24h-2.3v5.05a3.14 3.14 0 0 0-2.64-1.23c-2.71 0-3.7 2.16-3.7 4.59s1 4.65 3.7 4.65a3.28 3.28 0 0 0 2.71-1.2v1zm-4-4.44c0-1.18.41-2.81 1.9-2.81s2.06 1.58 2.06 2.81-.5 2.86-2 2.86-1.94-1.65-1.94-2.86m-12.37 4.44h2.3v-4.32c0-1.13.36-2.93 2-2.93 1.47 0 1.49 1.46 1.49 2.54v4.71h2.3v-5.57c0-2-.91-3.46-3-3.46a3.3 3.3 0 0 0-2.9 1.41v-1.2h-2.19v8.83zm-2.36-8.83h-2.3v4.32c0 1.13-.36 2.93-2 2.93-1.47 0-1.49-1.46-1.49-2.54v-4.7h-2.3v5.57c0 2 .91 3.46 3 3.46a3.68 3.68 0 0 0 2.9-1.41v1.2h2.18v-8.82zM50 82.47a2.34 2.34 0 0 1 2.21-2.62c1.51 0 2.23 1.27 2.23 2.62s-.46 3-2.23 3-2.21-1.55-2.21-3m-2.4.27a4.36 4.36 0 0 0 4.61 4.56 4.36 4.36 0 0 0 4.63-4.56 4.62 4.62 0 1 0-9.24 0m-7.8 4.35h2.4v-5.24h4V80h-4v-3h4.25v-1.87h-6.64v12zm-7.64-11.74a9 9 0 0 0-2.86-.43c-2.11 0-4.18 1-4.18 3.65 0 4 5.24 3 5.24 5.29 0 1.08-1.22 1.54-2.12 1.54a5.78 5.78 0 0 1-2.71-.74l-.22 2.16a10.55 10.55 0 0 0 3.07.46c2.42 0 4.49-1 4.49-3.62 0-4-5.24-3.14-5.24-5.21a1.67 1.67 0 0 1 1.89-1.66 6.19 6.19 0 0 1 2.43.52zm-19 11.74h2.4v-5.24h4.8v5.24h2.4v-12h-2.4V80h-4.8v-4.87h-2.4v12zm-12.49 0h2.3v-8.94H3l4.58 8.95h2.93v-12H8.19v8.95L3.6 75.13H.65v12z" fill="#005eb8"/></svg>