<?xml version="1.0" encoding="UTF-8" standalone="no"?>
<!DOCTYPE svg PUBLIC "-//W3C//DTD SVG 1.1//EN" "http://www.w3.org/Graphics/SVG/1.1/DTD/svg11.dtd">
<svg width="100%" height="100%" viewBox="0 0 581 155" version="1.1" xmlns="http://www.w3.org/2000/svg" xmlns:xlink="http://www.w3.org/1999/xlink" xml:space="preserve" xmlns:serif="http://www.serif.com/" style="fill-rule:evenodd;clip-rule:evenodd;stroke-linejoin:round;stroke-miterlimit:2;">
    <g id="g3126" transform="matrix(1,0,0,1,-28.3058,-178.29)">
        <path id="path3128" d="M373.929,183.713C374.194,183.705 374.426,183.729 374.653,183.813C374.835,183.915 374.971,184.025 375.108,184.146C375.342,184.302 375.47,184.515 375.614,184.709C375.909,185.169 376.377,185.535 376.87,185.788L377.041,185.694L377.139,185.555C377.267,185.426 377.334,185.279 377.43,185.138C377.8,184.606 378.259,184.264 378.845,184.022C379.073,183.948 379.376,183.946 379.605,183.995C379.681,184.012 379.731,183.983 379.801,184.017C380.06,184.113 380.266,184.32 380.429,184.557C380.521,184.696 380.561,184.853 380.53,185.018C380.487,185.39 380.41,185.676 380.303,186.024L379.602,187.783C379.577,187.844 379.543,187.918 379.518,187.979C379.404,188.254 379.338,188.561 379.192,188.824C378.752,189.613 378.193,190.338 377.636,191.049C377.099,191.802 376.632,192.529 376.289,193.353C376.175,193.628 376.119,193.957 376.037,194.244C375.91,194.549 375.872,194.92 375.81,195.249C375.79,196.017 375.696,196.58 375.662,197.202C375.679,196.891 375.699,197.11 375.688,197.317C375.678,197.701 375.636,198.159 375.524,198.611C375.467,198.837 375.349,198.967 375.318,199.132C375.256,199.461 375.157,199.844 375.03,200.149C374.979,200.271 374.898,200.363 374.848,200.485L375.366,201.106C375.497,201.33 375.609,201.536 375.811,201.681C376.039,201.941 376.236,202.163 376.477,202.393C376.705,202.653 377.02,202.905 377.339,203.128C377.456,203.206 377.62,203.343 377.782,203.402C377.976,203.474 378.273,203.522 378.505,203.503C378.868,203.53 379.211,203.477 379.558,203.359C379.939,203.252 380.258,203.172 380.574,203.042C380.606,203.054 380.732,202.98 380.867,202.925C381.015,202.838 381.183,202.801 381.332,202.714C381.48,202.628 381.636,202.533 381.784,202.446C381.989,202.311 382.188,202.163 382.394,202.028C382.67,201.813 382.818,201.699 382.991,201.551C383.049,201.502 383.232,201.346 383.418,201.168C383.72,200.892 384.022,200.644 384.259,200.344C384.848,199.645 385.402,198.847 385.789,198.004C385.84,197.881 385.944,197.693 386.007,197.541C386.096,197.327 386.111,197.176 386.2,196.962C386.376,196.358 386.605,195.78 386.827,195.158C386.941,194.883 387.127,194.64 387.313,194.463C387.409,194.322 387.473,194.225 387.556,194.115C387.677,193.913 387.874,193.728 388.08,193.593C388.253,193.445 388.436,193.291 388.629,193.186C388.834,193.05 389.049,193.033 389.302,193.055C389.379,193.049 389.433,193.053 389.498,193.077C389.583,193.144 389.655,193.191 389.719,193.215C389.804,193.281 389.853,193.337 389.892,193.421C389.959,193.622 389.977,193.701 390.029,193.756C390.049,193.798 390.085,193.883 390.079,193.986C390.023,194.212 390.014,194.436 389.912,194.68C389.674,195.613 389.374,196.55 389.058,197.49L388.66,198.589C388.546,198.864 388.524,199.243 388.617,199.559C388.611,199.663 388.711,199.772 388.815,199.881C388.919,199.99 389.067,200.12 389.196,200.168C389.359,200.228 389.52,200.241 389.663,200.258C389.928,200.25 390.145,200.27 390.422,200.231C390.745,200.174 391.061,200.056 391.376,199.926C392.085,199.659 392.719,199.425 393.357,199.061C393.878,198.796 394.463,198.54 395.056,198.371C395.191,198.315 395.306,198.31 395.436,198.358C395.553,198.436 395.659,198.532 395.744,198.599C395.828,198.665 395.922,198.702 395.916,198.805C395.963,198.964 395.974,199.145 395.956,199.279C395.925,199.443 395.863,199.577 395.799,199.73C395.786,199.76 395.789,199.796 395.763,199.857C395.7,200.01 395.601,200.182 395.558,200.378C395.558,200.378 395.522,200.417 395.509,200.447C395.471,200.539 395.475,200.61 395.437,200.702C395.354,200.812 395.191,200.924 395.12,201.003C395.012,201.175 394.921,201.331 394.78,201.49C394.652,201.619 394.514,201.756 394.353,201.873C394.122,202.07 393.848,202.259 393.585,202.443C393.186,202.684 392.808,202.898 392.362,202.981C391.969,203.117 391.502,203.193 391.09,203.287C390.934,203.301 390.845,203.333 390.722,203.359C390.425,203.355 390.138,203.325 389.828,203.352C389.472,203.397 389.089,203.417 388.701,203.45C388.378,203.507 388.006,203.498 387.697,203.524C387.451,203.575 387.142,203.679 386.852,203.748C386.575,203.787 386.302,203.852 386.056,203.902C385.734,203.959 385.49,203.999 385.2,204.068C384.291,204.367 383.409,204.695 382.559,205.121C381.561,205.634 380.709,206.433 380.108,207.339C379.962,207.602 379.871,207.794 379.757,208.068C379.644,208.343 379.513,208.626 379.431,208.913C379.338,209.407 379.292,209.916 379.244,210.392C379.183,210.898 379.15,211.377 379.056,211.871C379.058,212.047 379.001,212.254 378.925,212.437C378.792,212.846 378.704,213.197 378.539,213.594C378.514,213.655 378.444,213.768 378.406,213.86C377.823,215.265 376.937,216.544 375.769,217.557L374.573,218.51L373.304,219.417C372.165,220.089 370.959,220.725 369.65,221.087C369.033,221.265 368.214,221.515 367.252,221.792C361.575,223.592 360.761,225.132 358.686,225.93L358.476,225.717C358.399,226.176 358.378,226.454 358.456,226.503C358.885,226.768 361.948,234.808 363.235,239.04C365.479,246.417 368.001,249.36 372.304,249.604C374.725,249.741 378.787,252.522 380.707,255.368C381.556,256.626 387.36,258.123 392.6,258.413C394.44,258.515 396.153,258.729 396.463,258.866C396.772,259.004 400.035,259.157 403.695,259.267C407.355,259.378 412.244,259.661 414.544,259.87C416.843,260.078 419.14,260.181 419.692,260.074C421.137,259.794 422.615,257.978 424.51,254.091C425.464,252.134 426.767,250.248 427.621,249.641C429.859,248.052 434.572,246.328 435.362,246.818C436.265,247.379 435.942,247.931 433.675,249.61C431.46,251.25 429.698,253.894 429.982,255.194C430.085,255.666 429.859,256.376 429.44,256.802C427.551,258.72 427.409,260.242 428.688,264.461C429.875,268.376 429.866,268.508 428.879,272.057C427.588,276.703 428.014,278.87 430.498,280.639C432.308,281.929 436.788,282.901 439.798,282.623C441.056,282.508 441.652,282.842 443.648,285.063C444.947,286.508 446.947,288.294 448.083,289.012C451.125,290.934 458.188,293.785 459.347,293.561C459.9,293.453 461.133,293.645 462.119,293.985C464.116,294.673 467.233,297.038 466.858,297.574C466.725,297.764 465.659,298.107 464.473,298.337L462.331,298.752L463.027,300.481C463.71,302.139 463.699,302.263 462.427,302.701C461.692,302.953 460.784,303.11 460.407,303.092C460.031,303.074 459.549,303.138 459.342,303.179C459.135,303.219 458.323,302.887 457.524,302.449C456.725,302.011 455.346,301.354 454.464,300.999C451.384,299.756 446.654,296.753 445.731,295.478C445.22,294.772 443.236,293.448 441.376,292.476C438.063,290.744 437.925,290.657 433.266,290.982C430.649,291.165 427.478,291.429 426.248,291.561C418.647,292.375 415.415,291.33 411.49,286.788C407.884,282.615 404.887,281.701 397.666,282.495C394.943,282.795 392.527,283.25 392.268,283.482C392.009,283.713 391.215,283.928 390.531,283.998C388.969,284.159 383.923,283.778 382.488,283.394C380.208,282.783 372.096,280.484 369.501,279.72C368.007,279.28 366.419,278.876 365.979,278.78C365.539,278.684 364.625,278.354 363.916,278.098C363.152,277.821 361.284,277.872 359.346,278.202C355.98,278.776 353.506,278.444 347.682,276.496C341.791,274.525 338.663,275.285 332.715,280.118C330.439,281.968 328.277,283.503 327.981,283.56C327.685,283.617 326.649,284.688 325.63,285.939C323.84,288.137 323.646,288.247 320.279,288.9L316.791,289.576L318.479,287.085C319.416,285.718 320.632,284.37 321.146,284.104C321.659,283.837 322.69,282.834 323.461,281.852C324.232,280.869 326.139,279.301 327.681,278.389C329.223,277.477 330.414,276.588 330.365,276.366C330.241,275.798 329.668,275.939 324.664,278.012C319.006,280.355 315.821,281.044 312.767,280.498C311.436,280.261 310.338,279.884 310.299,279.714C310.114,278.89 318.383,275.652 322.465,274.952C326.253,274.303 333.375,272.032 335.284,270.845C337.223,269.638 336.818,269.704 347.542,269.43C349.538,269.379 351.517,269.09 351.999,268.807C353.287,268.051 353.181,266.238 351.637,263.347C350.885,261.94 349.956,260.197 349.567,259.421C349.179,258.644 348.225,257.355 347.48,256.58C344.769,253.76 344.62,252.578 346.272,246.956C347.716,242.042 347.729,241.766 346.795,240.003C346.261,238.996 345.391,237.879 344.844,237.496C343.813,236.774 336.759,234.916 335.774,235.106C335.078,235.241 334.434,234.276 334.093,232.667C333.613,230.404 334.108,229.976 338.471,229.054C341.552,228.403 344.787,227.396 347.096,226.481L345.869,226.117L340.692,225.198C339.753,225.028 338.772,224.838 337.711,224.693C336.857,224.59 336.082,224.361 335.33,224.013C334.836,223.761 334.347,223.525 333.879,223.212C333.463,222.953 333.356,222.486 333.566,222.071C333.718,221.704 334.06,221.402 334.493,221.35C335.048,221.273 335.556,221.393 336.075,221.584L335.591,220.536L335.168,219.476L334.929,218.38C334.6,216.921 334.444,215.429 334.536,213.949L333.72,212.844C333.504,212.554 333.378,212.219 333.31,211.842C333.242,211.465 333.468,211.044 333.881,210.95C334.307,210.825 334.671,210.886 335.009,211.152L336.35,212.034C336.806,212.378 337.344,212.632 337.862,212.823C338.251,212.966 338.634,213.07 339.016,213.14L338.534,212.392L338.098,211.275L337.575,209.753L337.35,209.015C337.282,208.638 337.505,208.269 337.847,208.078C338.13,207.936 338.487,207.974 338.754,208.142C339.105,208.377 339.431,208.686 339.654,209.05C340.033,209.577 340.342,210.127 340.644,210.661C340.965,211.237 341.396,211.765 341.878,212.225C342.725,213.065 343.374,213.722 344.085,214.442C344.586,214.944 345.395,215.517 346.237,215.828C346.335,215.864 346.43,215.902 346.507,215.896C346.896,216.039 347.327,215.913 347.596,215.625C347.712,215.526 347.789,215.399 347.839,215.277C347.903,215.124 347.895,214.98 347.861,214.792C347.792,214.238 347.818,213.649 347.937,213.094C348.048,212.466 348.362,211.905 348.785,211.427C349.15,210.998 349.806,210.994 350.133,211.466C350.297,211.703 350.413,212.066 350.396,212.377C350.3,214.138 350.276,215.857 350.316,217.562L356.468,219.735L357.433,219.188L358.896,218.002C360.117,217.044 361.215,215.957 362.15,214.787C362.789,213.967 363.314,213.07 363.74,212.135C363.81,212.055 363.86,211.987 363.885,211.926C364.165,211.254 364.28,210.597 364.34,209.915C364.366,209.22 364.269,208.492 363.96,207.885C363.723,207.375 363.393,206.871 363.13,206.423C362.673,205.726 362.211,205.059 361.624,204.491C361.005,203.91 360.282,203.492 359.484,203.162C358.894,202.874 358.181,202.55 357.493,202.226C357.052,202.028 356.741,201.935 356.449,201.827C355.931,201.636 355.483,201.469 354.939,201.338C354.156,201.155 353.32,200.938 352.497,200.67L351.417,200.398C350.885,200.238 350.387,199.894 350.002,199.47C349.722,199.156 349.652,198.775 349.837,198.421C350.027,197.963 350.461,197.626 350.983,197.537C351.474,197.436 352.04,197.384 352.564,197.471C353.165,197.552 353.746,197.72 354.368,197.843L358.463,196.148L358.2,195.237C357.869,194.234 357.693,193.193 357.717,192.145C357.727,191.761 358.007,191.432 358.348,191.241C358.632,191.099 358.964,191.11 359.243,191.248C359.535,191.356 359.794,191.566 359.945,191.833C360.135,192.185 360.267,192.592 360.381,192.951C360.507,193.456 360.71,193.908 360.94,194.345C361.17,194.782 361.39,195.155 361.646,195.531C361.809,195.767 362.025,196.03 362.189,196.267L362.569,196.253L363.231,196.365L365.134,196.898L366.988,197.5L369.295,198.135C370.021,198.367 370.804,198.457 371.515,198.366L371.88,197.995C372.091,197.756 372.191,197.498 372.292,197.254C372.318,197.192 372.364,197.176 372.39,197.115C372.472,196.828 372.557,196.562 372.593,196.294C372.675,196.007 372.678,195.673 372.649,195.381C372.641,195.132 372.625,194.878 372.559,194.677C372.532,194.562 372.446,194.422 372.362,194.355C372.225,194.234 372.066,194.135 371.955,193.953C371.811,193.759 371.625,193.508 371.436,193.332C371.235,193.188 371.01,193.026 370.821,192.851L369.811,192.025L369.035,191.393C368.645,191.073 368.267,190.673 368.024,190.267C367.828,190.019 367.734,189.82 367.616,189.565C367.497,189.31 367.505,188.961 367.684,188.71C368.075,188.22 368.733,188.044 369.324,188.332C370.557,188.963 371.663,189.732 372.646,190.694C372.698,190.748 372.812,190.829 372.942,190.877C373.007,190.901 373.041,190.863 373.138,190.899C373.655,190.913 374.235,190.668 374.457,190.222C374.604,189.959 374.711,189.686 374.857,189.424C374.87,189.393 374.893,189.384 374.906,189.354C375.032,189.049 375.038,188.752 375.023,188.43C375.002,188.211 374.913,187.91 374.737,187.704C374.501,187.371 374.301,187.075 374.021,186.761C373.564,186.24 373.16,185.653 372.883,185.058C372.765,184.803 372.782,184.563 372.916,184.33C373.037,184.128 373.234,183.943 373.44,183.808C373.588,183.722 373.742,183.714 373.929,183.713L373.929,183.713L373.929,183.713ZM361.486,199.769C361.331,199.782 361.15,199.85 361.022,199.979C360.919,200.047 360.932,200.228 361.036,200.337C361.518,200.796 362.019,201.212 362.526,201.611C363.014,201.967 363.538,202.251 364.064,202.515C364.226,202.575 364.387,202.676 364.542,202.663C365.17,202.683 365.787,202.723 366.357,202.792C366.512,202.779 366.709,202.753 366.871,202.812C366.904,202.824 366.865,202.916 366.897,202.928C367.221,203.047 367.477,203.222 367.66,203.501C367.732,203.598 367.815,203.701 367.797,203.835C367.778,203.969 367.629,204.176 367.579,204.298C367.566,204.329 367.591,204.356 367.591,204.356C367.477,204.631 367.318,204.849 367.192,205.155C367.07,205.356 367.055,205.595 367.012,205.79L366.977,206.218C367.07,206.534 367.172,206.928 367.265,207.244C367.512,208.18 367.591,209.148 367.515,210.141L367.518,210.741C368.112,210.572 368.725,210.381 369.291,210.097C369.588,209.924 369.921,209.725 370.269,209.607C370.527,209.526 370.769,209.484 371.028,209.58C371.417,209.723 371.69,210.114 371.622,210.547C371.591,210.711 371.554,210.96 371.491,211.113C371.44,211.235 371.38,211.281 371.296,211.391C371.137,211.685 370.91,211.892 370.614,212.065C369.977,212.428 369.417,212.833 368.832,213.251C368.247,213.67 367.64,214.093 367.075,214.554C365.983,215.384 364.959,216.307 364.101,217.294C363.472,217.908 362.866,218.576 362.225,219.22L361.433,219.975L361.506,220.021C363.895,219.669 366.261,219.082 368.53,218.299C369.407,217.988 370.177,217.616 370.963,217.166C371.908,216.599 372.816,215.928 373.585,215.155C374.169,214.56 374.667,213.882 375.069,213.185C375.203,212.952 375.319,212.7 375.42,212.455C375.75,211.661 375.858,210.772 375.883,209.901C375.909,208.22 375.404,206.586 374.41,205.198C373.744,204.283 372.943,203.497 371.994,202.901C371.027,202.263 369.938,201.696 368.836,201.29C368.523,201.165 368.183,201.049 367.866,200.937C366.913,200.599 365.928,200.298 364.932,200.063C364.757,200.034 364.547,200.002 364.404,199.985C364.229,199.955 364.084,199.948 363.877,199.907C363.767,199.901 363.591,199.919 363.436,199.932C362.996,199.911 362.599,199.836 362.185,199.754C361.932,199.731 361.719,199.749 361.486,199.769L361.486,199.769ZM338.11,215.42C337.892,216.395 337.872,217.375 338.041,218.318C338.264,219.492 338.848,220.629 339.702,221.542C339.943,221.772 340.22,222.027 340.552,222.219C340.798,222.345 341.038,222.39 341.252,222.504C341.382,222.552 341.54,222.616 341.669,222.664C341.767,222.7 341.813,222.719 341.878,222.743L342.319,222.718C342.361,222.346 342.27,221.974 342.08,221.622C341.798,221.131 341.613,220.597 341.544,220.043C341.53,219.897 341.515,219.769 341.578,219.616C341.667,219.402 341.869,219.29 342.127,219.209C342.463,219.121 342.861,219.106 343.218,219.238C343.315,219.274 343.403,219.328 343.501,219.364C343.929,219.592 344.293,219.9 344.658,220.281C345.036,220.632 345.436,221.023 345.743,221.453C346.018,221.872 346.28,222.278 346.522,222.685L346.807,223.11C348.189,223.831 349.68,224.334 351.227,224.658L352.356,224.86L353.08,224.96C353.097,224.649 353.114,224.284 352.988,223.956C352.856,223.555 352.747,223.138 352.479,222.792C352.152,222.32 351.676,221.845 351.233,221.471C350.667,220.945 350.026,220.507 349.351,220.153C348.11,219.449 346.835,218.804 345.479,218.199L344.705,217.868L344.14,217.617L342.887,217.138L339.842,216.046L338.11,215.419L338.11,215.419L338.11,215.42Z" style="fill-rule:nonzero;"/>
        <path id="path3130" d="M220.341,178.635C220.603,178.598 220.836,178.597 221.072,178.655C221.265,178.737 221.414,178.831 221.565,178.936C221.816,179.067 221.97,179.264 222.136,179.441C222.485,179.867 222.995,180.179 223.516,180.376L223.675,180.265L223.754,180.116C223.866,179.975 223.915,179.821 223.993,179.67C224.296,179.101 224.709,178.712 225.262,178.409C225.479,178.31 225.781,178.275 226.013,178.299C226.091,178.307 226.138,178.273 226.211,178.3C226.48,178.367 226.71,178.551 226.901,178.768C227.009,178.896 227.068,179.048 227.057,179.215C227.06,179.589 227.018,179.881 226.955,180.239L226.474,182.062C226.456,182.125 226.431,182.203 226.414,182.266C226.334,182.552 226.306,182.863 226.193,183.141C225.853,183.972 225.386,184.753 224.92,185.519C224.478,186.326 224.103,187.099 223.863,187.955C223.784,188.24 223.768,188.573 223.722,188.867C223.633,189.184 223.64,189.557 223.619,189.89C223.693,190.655 223.669,191.224 223.711,191.845C223.69,191.535 223.736,191.75 223.75,191.957C223.787,192.34 223.802,192.8 223.745,193.26C223.717,193.491 223.616,193.633 223.605,193.8C223.583,194.134 223.532,194.525 223.443,194.842C223.407,194.969 223.339,195.068 223.303,195.195L223.894,195.756C224.052,195.964 224.188,196.157 224.406,196.279C224.665,196.512 224.887,196.712 225.154,196.914C225.413,197.148 225.757,197.363 226.101,197.55C226.226,197.615 226.406,197.733 226.574,197.775C226.776,197.825 227.076,197.841 227.305,197.796C227.668,197.785 228.002,197.694 228.333,197.539C228.699,197.392 229.006,197.277 229.303,197.114C229.337,197.122 229.453,197.036 229.58,196.966C229.717,196.864 229.88,196.808 230.016,196.707C230.153,196.605 230.296,196.493 230.432,196.391C230.62,196.235 230.8,196.066 230.987,195.909C231.235,195.666 231.369,195.536 231.523,195.371C231.574,195.316 231.737,195.141 231.9,194.944C232.166,194.637 232.436,194.358 232.634,194.034C233.134,193.276 233.587,192.423 233.869,191.543C233.904,191.417 233.984,191.219 234.028,191.06C234.09,190.838 234.087,190.687 234.149,190.465C234.25,189.845 234.408,189.247 234.551,188.604C234.631,188.319 234.786,188.058 234.949,187.861C235.027,187.711 235.079,187.607 235.148,187.489C235.244,187.275 235.417,187.07 235.605,186.913C235.759,186.748 235.921,186.575 236.1,186.45C236.288,186.293 236.5,186.252 236.753,186.247C236.829,186.232 236.883,186.231 236.951,186.248C237.043,186.304 237.12,186.343 237.187,186.36C237.279,186.417 237.335,186.467 237.384,186.547C237.475,186.739 237.502,186.815 237.561,186.864C237.586,186.904 237.632,186.984 237.639,187.088C237.611,187.318 237.629,187.541 237.558,187.795C237.435,188.748 237.252,189.711 237.053,190.679L236.792,191.814C236.712,192.099 236.737,192.478 236.867,192.782C236.875,192.885 236.987,192.984 237.103,193.081C237.221,193.177 237.383,193.291 237.518,193.324C237.686,193.366 237.848,193.361 237.991,193.363C238.254,193.326 238.472,193.322 238.743,193.254C239.056,193.162 239.356,193.01 239.653,192.847C240.325,192.505 240.926,192.204 241.515,191.773C242,191.453 242.55,191.135 243.118,190.903C243.246,190.833 243.359,190.815 243.494,190.849C243.62,190.914 243.737,190.998 243.829,191.055C243.921,191.112 244.019,191.138 244.026,191.242C244.092,191.393 244.125,191.572 244.123,191.707C244.113,191.874 244.067,192.014 244.023,192.172C244.014,192.204 244.02,192.239 244.003,192.303C243.958,192.461 243.882,192.643 243.862,192.842C243.862,192.842 243.832,192.885 243.822,192.916C243.796,193.012 243.809,193.082 243.782,193.177C243.713,193.295 243.564,193.424 243.504,193.511C243.417,193.693 243.346,193.858 243.226,194.032C243.114,194.173 242.994,194.325 242.848,194.459C242.643,194.679 242.394,194.896 242.155,195.108C241.788,195.39 241.438,195.644 241.006,195.774C240.632,195.953 240.178,196.079 239.779,196.217C239.627,196.247 239.542,196.289 239.423,196.328C239.127,196.356 238.839,196.358 238.534,196.418C238.186,196.501 237.807,196.563 237.426,196.638C237.113,196.729 236.743,196.76 236.438,196.821C236.2,196.897 235.906,197.034 235.626,197.135C235.355,197.203 235.092,197.297 234.855,197.374C234.541,197.466 234.304,197.532 234.024,197.632C233.158,198.027 232.321,198.449 231.529,198.964C230.601,199.582 229.852,200.469 229.366,201.433C229.253,201.71 229.187,201.91 229.107,202.196C229.027,202.481 228.932,202.776 228.886,203.07C228.854,203.571 228.87,204.082 228.881,204.56C228.882,205.069 228.907,205.548 228.875,206.049C228.898,206.224 228.867,206.436 228.814,206.626C228.732,207.047 228.688,207.404 228.572,207.817C228.555,207.88 228.499,208 228.473,208.096C228.065,209.554 227.341,210.921 226.304,212.054L225.233,213.13L224.083,214.169C223.034,214.96 221.914,215.722 220.657,216.224C220.067,216.468 219.284,216.805 218.362,217.185C212.942,219.589 212.322,221.207 210.359,222.224L210.124,222.036C210.103,222.5 210.116,222.779 210.2,222.818C210.658,223.036 214.683,230.69 216.479,234.754C219.61,241.838 222.474,244.488 226.778,244.264C229.2,244.138 233.575,246.459 235.83,249.078C236.827,250.236 242.776,251.092 248.016,250.812C249.856,250.714 251.584,250.741 251.908,250.844C252.233,250.947 255.493,250.745 259.142,250.458C262.791,250.17 267.683,249.921 269.992,249.879C272.302,249.836 274.596,249.689 275.131,249.523C276.533,249.088 277.779,247.124 279.186,243.057C279.894,241.01 280.958,238.995 281.732,238.299C283.761,236.478 288.232,234.255 289.077,234.656C290.042,235.114 289.789,235.697 287.742,237.612C285.742,239.481 284.315,242.298 284.756,243.559C284.916,244.017 284.778,244.747 284.414,245.215C282.773,247.326 282.817,248.853 284.603,252.905C286.261,256.666 286.268,256.797 285.722,260.43C285.007,265.185 285.695,267.291 288.378,268.779C290.334,269.864 294.903,270.344 297.859,269.741C299.094,269.49 299.727,269.757 301.982,271.747C303.449,273.042 305.653,274.599 306.87,275.188C310.127,276.768 317.491,278.834 318.615,278.485C319.151,278.318 320.399,278.375 321.42,278.606C323.488,279.073 326.873,281.084 326.566,281.657C326.457,281.86 325.44,282.317 324.29,282.674L322.213,283.319L323.116,284.96C323.997,286.533 324.001,286.658 322.791,287.23C322.092,287.561 321.209,287.815 320.833,287.838C320.457,287.861 319.986,287.977 319.785,288.039C319.584,288.102 318.737,287.86 317.89,287.512C317.042,287.164 315.593,286.661 314.673,286.403C311.462,285.503 306.396,283.033 305.324,281.867C304.729,281.221 302.597,280.121 300.63,279.357C297.128,277.997 296.98,277.924 292.392,278.753C289.815,279.218 286.697,279.825 285.491,280.09C278.04,281.723 274.702,281.035 270.248,276.949C266.156,273.195 263.067,272.612 255.992,274.185C253.324,274.778 250.979,275.492 250.75,275.75C250.521,276.008 249.758,276.308 249.087,276.452C247.556,276.781 242.497,276.95 241.024,276.724C238.685,276.365 230.346,274.961 227.675,274.483C226.137,274.208 224.511,273.979 224.061,273.931C223.612,273.884 222.664,273.656 221.929,273.478C221.136,273.286 219.286,273.539 217.402,274.077C214.129,275.013 211.63,274.952 205.607,273.648C199.514,272.329 196.5,273.423 191.183,278.87C189.147,280.955 187.187,282.714 186.9,282.803C186.613,282.892 185.715,284.067 184.855,285.421C183.346,287.798 183.167,287.929 179.902,288.942L176.52,289.992L177.893,287.334C178.656,285.875 179.7,284.404 180.177,284.084C180.654,283.763 181.556,282.655 182.202,281.596C182.848,280.536 184.55,278.772 185.97,277.698C187.391,276.625 188.465,275.613 188.389,275.398C188.197,274.846 187.645,275.049 182.927,277.651C177.594,280.593 174.513,281.622 171.414,281.412C170.062,281.32 168.925,281.065 168.866,280.901C168.582,280.101 176.4,275.988 180.369,274.85C184.053,273.794 190.85,270.766 192.601,269.379C194.38,267.971 193.985,268.079 204.605,266.644C206.581,266.377 208.512,265.875 208.956,265.541C210.142,264.651 209.816,262.861 207.929,260.158C207.01,258.841 205.874,257.211 205.393,256.482C204.912,255.753 203.807,254.575 202.972,253.886C199.935,251.379 199.642,250.221 200.596,244.458C201.43,239.419 201.41,239.144 200.266,237.494C199.613,236.551 198.612,235.536 198.022,235.215C196.91,234.61 189.675,233.529 188.72,233.826C188.046,234.035 187.288,233.146 186.752,231.585C185.999,229.389 186.438,228.91 190.66,227.521C193.64,226.54 196.731,225.188 198.913,224.029L197.649,223.801L192.394,223.449C191.441,223.382 190.443,223.3 189.372,223.271C188.51,223.261 187.713,223.118 186.923,222.854C186.402,222.657 185.887,222.476 185.384,222.216C184.94,222.004 184.776,221.552 184.933,221.116C185.04,220.735 185.343,220.398 185.766,220.3C186.308,220.163 186.828,220.227 187.367,220.361L186.758,219.372L186.208,218.365L185.837,217.302C185.332,215.888 184.994,214.423 184.904,212.943L183.959,211.934C183.709,211.669 183.542,211.35 183.429,210.983C183.316,210.616 183.489,210.174 183.887,210.035C184.295,209.865 184.665,209.886 185.033,210.113L186.473,210.844C186.967,211.136 187.533,211.33 188.071,211.464C188.475,211.564 188.868,211.625 189.256,211.654L188.685,210.963L188.117,209.9L187.411,208.445L187.097,207.737C186.984,207.37 187.16,206.979 187.476,206.751C187.74,206.58 188.1,206.579 188.385,206.717C188.762,206.913 189.124,207.184 189.39,207.521C189.831,208.003 190.205,208.517 190.57,209.014C190.96,209.552 191.452,210.03 191.987,210.434C192.932,211.177 193.656,211.759 194.45,212.397C195.01,212.841 195.883,213.323 196.758,213.54C196.859,213.565 196.958,213.593 197.034,213.578C197.438,213.678 197.851,213.506 198.083,213.19C198.186,213.08 198.247,212.946 198.282,212.819C198.326,212.66 198.301,212.518 198.244,212.335C198.108,211.792 198.062,211.204 198.112,210.64C198.146,210.004 198.389,209.413 198.751,208.892C199.061,208.426 199.712,208.351 200.095,208.785C200.286,209.002 200.446,209.35 200.467,209.661C200.587,211.42 200.773,213.13 201.021,214.82L207.398,216.311L208.29,215.663L209.599,214.326C210.694,213.242 211.652,212.043 212.437,210.78C212.972,209.895 213.384,208.947 213.692,207.973C213.753,207.886 213.794,207.813 213.812,207.749C214.007,207.052 214.042,206.387 214.017,205.702C213.959,205.009 213.773,204.296 213.392,203.727C213.094,203.246 212.705,202.782 212.389,202.364C211.849,201.722 211.309,201.11 210.657,200.609C209.971,200.099 209.202,199.762 208.369,199.521C207.747,199.299 206.999,199.054 206.277,198.807C205.814,198.659 205.494,198.6 205.191,198.524C204.653,198.391 204.188,198.273 203.631,198.203C202.831,198.106 201.974,197.981 201.123,197.804L200.017,197.651C199.47,197.549 198.932,197.262 198.499,196.883C198.182,196.601 198.066,196.23 198.206,195.858C198.339,195.382 198.729,195.001 199.237,194.856C199.712,194.702 200.268,194.589 200.799,194.619C201.406,194.634 202.003,194.737 202.636,194.793L206.497,192.664L206.125,191.788C205.673,190.828 205.371,189.812 205.266,188.769C205.229,188.387 205.468,188.03 205.784,187.803C206.048,187.631 206.379,187.605 206.673,187.712C206.976,187.787 207.259,187.969 207.442,188.217C207.674,188.546 207.855,188.937 208.011,189.281C208.199,189.768 208.456,190.196 208.737,190.605C209.019,191.014 209.284,191.36 209.583,191.706C209.774,191.923 210.022,192.161 210.213,192.378L210.588,192.324L211.26,192.363L213.215,192.686L215.13,193.083L217.5,193.463C218.249,193.615 219.038,193.619 219.733,193.452L220.051,193.043C220.231,192.783 220.299,192.516 220.37,192.262C220.388,192.199 220.431,192.177 220.449,192.114C220.495,191.82 220.547,191.547 220.551,191.276C220.597,190.983 220.559,190.651 220.495,190.364C220.456,190.117 220.41,189.866 220.32,189.674C220.279,189.563 220.176,189.432 220.084,189.376C219.933,189.271 219.763,189.189 219.631,189.02C219.464,188.844 219.249,188.614 219.04,188.46C218.822,188.338 218.579,188.202 218.37,188.048L217.266,187.337L216.418,186.795C215.991,186.519 215.566,186.163 215.276,185.786C215.051,185.56 214.933,185.373 214.784,185.132C214.636,184.892 214.6,184.545 214.748,184.276C215.076,183.747 215.709,183.5 216.331,183.722C217.633,184.215 218.825,184.859 219.919,185.708C219.978,185.756 220.1,185.824 220.235,185.858C220.302,185.874 220.332,185.833 220.433,185.858C220.948,185.817 221.494,185.51 221.661,185.043C221.774,184.766 221.847,184.483 221.96,184.206C221.969,184.175 221.991,184.164 222,184.132C222.089,183.815 222.058,183.52 222.003,183.201C221.956,182.986 221.831,182.696 221.631,182.511C221.356,182.205 221.121,181.934 220.804,181.652C220.287,181.184 219.813,180.645 219.466,180.084C219.317,179.843 219.305,179.603 219.409,179.357C219.505,179.144 219.678,178.939 219.866,178.782C220.002,178.68 220.154,178.656 220.341,178.634L220.341,178.634L220.341,178.635ZM209.943,195.934C209.791,195.964 209.619,196.051 209.507,196.193C209.414,196.271 209.448,196.45 209.565,196.547C210.101,196.951 210.649,197.31 211.201,197.65C211.729,197.951 212.285,198.176 212.839,198.382C213.007,198.424 213.18,198.506 213.333,198.477C213.958,198.428 214.577,198.401 215.151,198.408C215.303,198.378 215.496,198.331 215.664,198.372C215.698,198.381 215.67,198.476 215.704,198.484C216.04,198.568 216.316,198.714 216.532,198.971C216.615,199.06 216.71,199.153 216.708,199.288C216.707,199.423 216.584,199.645 216.549,199.772C216.54,199.803 216.568,199.828 216.568,199.828C216.488,200.113 216.357,200.347 216.269,200.664C216.173,200.878 216.187,201.117 216.167,201.316L216.186,201.744C216.317,202.048 216.466,202.428 216.597,202.732C216.956,203.635 217.153,204.587 217.199,205.582L217.276,206.178C217.845,205.947 218.431,205.69 218.958,205.346C219.231,205.142 219.538,204.909 219.87,204.753C220.116,204.645 220.351,204.577 220.621,204.644C221.025,204.744 221.343,205.103 221.329,205.54C221.318,205.707 221.312,205.958 221.267,206.117C221.232,206.244 221.178,206.296 221.108,206.414C220.986,206.723 220.785,206.954 220.513,207.157C219.924,207.588 219.417,208.051 218.887,208.53C218.358,209.008 217.806,209.495 217.301,210.014C216.318,210.957 215.414,211.985 214.682,213.058C214.132,213.736 213.612,214.466 213.054,215.176L212.359,216.011L212.438,216.049C214.768,215.44 217.047,214.6 219.205,213.576C220.038,213.172 220.758,212.719 221.482,212.187C222.352,211.521 223.172,210.756 223.842,209.905C224.349,209.25 224.761,208.522 225.075,207.786C225.18,207.541 225.264,207.278 225.335,207.024C225.565,206.199 225.564,205.304 225.482,204.437C225.302,202.764 224.601,201.195 223.444,199.924C222.67,199.088 221.779,198.394 220.764,197.905C219.725,197.376 218.574,196.931 217.429,196.647C217.103,196.557 216.752,196.479 216.423,196.401C215.435,196.169 214.419,195.977 213.401,195.852C213.224,195.842 213.011,195.833 212.868,195.831C212.691,195.821 212.545,195.829 212.335,195.811C212.224,195.818 212.052,195.854 211.899,195.884C211.46,195.911 211.057,195.88 210.635,195.843C210.381,195.848 210.171,195.888 209.943,195.933L209.943,195.934ZM188.635,214.016C188.537,215.009 188.637,215.985 188.921,216.903C189.286,218.045 190.005,219.111 190.965,219.926C191.232,220.128 191.539,220.35 191.891,220.506C192.152,220.604 192.395,220.623 192.622,220.713C192.756,220.746 192.922,220.793 193.056,220.826C193.157,220.851 193.206,220.866 193.273,220.883L193.708,220.809C193.704,220.436 193.569,220.076 193.337,219.747C192.996,219.29 192.747,218.779 192.611,218.237C192.579,218.093 192.549,217.967 192.593,217.808C192.655,217.586 192.842,217.453 193.088,217.345C193.411,217.221 193.805,217.163 194.176,217.255C194.277,217.28 194.37,217.324 194.472,217.349C194.925,217.53 195.324,217.796 195.733,218.135C196.151,218.442 196.597,218.788 196.955,219.182C197.279,219.567 197.589,219.943 197.879,220.32L198.214,220.712C199.675,221.279 201.217,221.616 202.794,221.77L203.94,221.848L204.671,221.869C204.65,221.559 204.622,221.194 204.457,220.882C204.277,220.498 204.117,220.095 203.809,219.781C203.427,219.347 202.896,218.928 202.41,218.604C201.783,218.143 201.093,217.778 200.379,217.499C199.061,216.934 197.716,216.432 196.294,215.977L195.485,215.733L194.893,215.545L193.59,215.205L190.432,214.45L188.635,214.016L188.635,214.016Z" style="fill-rule:nonzero;"/>
        <path id="path3132" d="M70.44,179.227C70.698,179.169 70.93,179.15 71.17,179.189C71.37,179.256 71.527,179.337 71.687,179.43C71.949,179.54 72.12,179.724 72.301,179.887C72.687,180.284 73.223,180.555 73.76,180.71L73.908,180.586L73.974,180.432C74.072,180.281 74.107,180.124 74.172,179.968C74.422,179.377 74.8,178.957 75.323,178.61C75.53,178.494 75.828,178.436 76.062,178.441C76.14,178.443 76.184,178.405 76.259,178.426C76.533,178.471 76.778,178.636 76.988,178.837C77.108,178.957 77.18,179.103 77.184,179.271C77.221,179.643 77.205,179.938 77.174,180.299L76.858,182.153C76.846,182.218 76.829,182.298 76.817,182.362C76.763,182.653 76.763,182.966 76.675,183.251C76.411,184.106 76.015,184.922 75.62,185.723C75.252,186.561 74.948,187.361 74.786,188.233C74.732,188.524 74.746,188.857 74.726,189.153C74.666,189.476 74.707,189.847 74.716,190.181C74.858,190.937 74.885,191.507 74.982,192.122C74.933,191.815 74.999,192.025 75.031,192.231C75.103,192.608 75.159,193.066 75.144,193.53C75.136,193.761 75.048,193.911 75.052,194.078C75.061,194.412 75.044,194.806 74.984,195.129C74.96,195.259 74.9,195.363 74.877,195.492L75.515,196.004C75.691,196.199 75.844,196.38 76.072,196.484C76.351,196.697 76.591,196.878 76.875,197.058C77.154,197.27 77.516,197.457 77.875,197.616C78.006,197.671 78.196,197.775 78.367,197.803C78.573,197.837 78.873,197.829 79.097,197.766C79.458,197.725 79.783,197.608 80.099,197.427C80.45,197.252 80.745,197.113 81.027,196.927C81.062,196.932 81.169,196.837 81.29,196.757C81.417,196.645 81.574,196.576 81.701,196.464C81.828,196.352 81.961,196.229 82.087,196.117C82.26,195.946 82.424,195.763 82.597,195.592C82.822,195.33 82.944,195.19 83.082,195.013C83.129,194.954 83.275,194.767 83.42,194.558C83.657,194.231 83.901,193.931 84.07,193.593C84.5,192.798 84.875,191.912 85.077,191.013C85.1,190.884 85.163,190.68 85.192,190.518C85.234,190.292 85.218,190.142 85.259,189.915C85.305,189.29 85.408,188.681 85.493,188.03C85.547,187.739 85.678,187.467 85.823,187.257C85.887,187.101 85.93,186.995 85.988,186.871C86.064,186.651 86.218,186.432 86.392,186.261C86.53,186.084 86.677,185.899 86.844,185.759C87.017,185.588 87.224,185.531 87.476,185.506C87.55,185.485 87.605,185.479 87.673,185.49C87.77,185.54 87.85,185.573 87.919,185.584C88.016,185.633 88.076,185.678 88.132,185.754C88.239,185.938 88.274,186.013 88.336,186.056C88.365,186.094 88.418,186.17 88.434,186.273C88.427,186.505 88.464,186.725 88.417,186.984C88.38,187.943 88.284,188.917 88.172,189.898L88.014,191.049C87.96,191.34 88.018,191.716 88.176,192.008C88.193,192.111 88.313,192.2 88.438,192.287C88.563,192.374 88.735,192.474 88.872,192.497C89.044,192.525 89.205,192.507 89.348,192.498C89.606,192.44 89.823,192.419 90.087,192.329C90.391,192.213 90.676,192.038 90.958,191.851C91.596,191.457 92.168,191.109 92.716,190.633C93.171,190.275 93.69,189.915 94.236,189.639C94.357,189.559 94.468,189.532 94.605,189.555C94.737,189.61 94.861,189.684 94.958,189.733C95.055,189.782 95.155,189.801 95.171,189.903C95.25,190.05 95.299,190.225 95.309,190.36C95.314,190.527 95.281,190.67 95.251,190.831C95.245,190.864 95.255,190.898 95.243,190.963C95.212,191.124 95.153,191.312 95.151,191.511C95.151,191.511 95.124,191.556 95.118,191.589C95.1,191.686 95.119,191.755 95.101,191.852C95.043,191.975 94.907,192.115 94.854,192.207C94.784,192.395 94.728,192.565 94.623,192.747C94.525,192.898 94.419,193.058 94.286,193.203C94.101,193.439 93.872,193.675 93.653,193.905C93.312,194.215 92.987,194.496 92.568,194.661C92.211,194.868 91.77,195.03 91.385,195.199C91.236,195.241 91.155,195.29 91.041,195.338C90.748,195.39 90.461,195.414 90.162,195.499C89.824,195.609 89.451,195.701 89.078,195.806C88.774,195.922 88.408,195.982 88.11,196.067C87.88,196.162 87.6,196.322 87.329,196.444C87.066,196.534 86.812,196.649 86.582,196.744C86.278,196.86 86.047,196.945 85.777,197.067C84.95,197.53 84.154,198.017 83.411,198.593C82.541,199.282 81.875,200.226 81.477,201.226C81.389,201.511 81.341,201.715 81.287,202.006C81.233,202.297 81.165,202.599 81.146,202.895C81.158,203.396 81.22,203.904 81.274,204.379C81.321,204.887 81.389,205.362 81.402,205.864C81.44,206.037 81.428,206.25 81.392,206.444C81.348,206.869 81.336,207.229 81.258,207.649C81.247,207.714 81.202,207.838 81.184,207.935C80.909,209.421 80.31,210.841 79.378,212.052L78.407,213.21L77.355,214.337C76.38,215.208 75.332,216.057 74.125,216.657C73.559,216.947 72.809,217.345 71.924,217.797C66.74,220.624 66.267,222.285 64.402,223.455L64.151,223.286C64.171,223.751 64.21,224.027 64.297,224.06C64.772,224.24 69.47,231.546 71.623,235.453C75.378,242.263 78.47,244.675 82.739,244.109C85.141,243.791 89.708,245.755 92.19,248.186C93.287,249.26 99.291,249.64 104.487,248.944C106.312,248.699 108.036,248.588 108.369,248.665C108.701,248.742 111.932,248.282 115.542,247.705C119.152,247.128 124.004,246.49 126.301,246.264C128.599,246.038 130.872,245.709 131.39,245.501C132.747,244.956 133.813,242.9 134.85,238.736C135.373,236.639 136.252,234.547 136.962,233.792C138.82,231.816 143.076,229.244 143.953,229.577C144.956,229.957 144.756,230.558 142.888,232.628C141.063,234.65 139.894,237.571 140.446,238.793C140.646,239.236 140.575,239.975 140.254,240.47C138.807,242.704 138.988,244.221 141.132,248.117C143.121,251.732 143.139,251.863 142.921,255.526C142.635,260.321 143.509,262.365 146.316,263.634C148.362,264.559 152.958,264.674 155.85,263.838C157.057,263.489 157.712,263.705 160.137,265.508C161.715,266.682 164.051,268.058 165.316,268.549C168.703,269.863 176.226,271.336 177.315,270.899C177.834,270.69 179.083,270.647 180.121,270.796C182.223,271.097 185.776,272.831 185.522,273.427C185.432,273.638 184.459,274.173 183.345,274.621L181.333,275.429L182.38,276.992C183.399,278.489 183.415,278.613 182.26,279.28C181.593,279.665 180.736,279.989 180.364,280.042C179.991,280.095 179.532,280.248 179.337,280.326C179.143,280.404 178.278,280.231 177.402,279.951C176.526,279.672 175.037,279.286 174.097,279.102C170.817,278.461 165.547,276.403 164.374,275.327C163.724,274.73 161.501,273.804 159.472,273.199C155.861,272.122 155.707,272.062 151.21,273.253C148.684,273.922 145.631,274.775 144.454,275.134C137.176,277.355 133.788,276.935 128.984,273.218C124.57,269.803 121.439,269.468 114.53,271.598C111.925,272.401 109.652,273.299 109.447,273.575C109.242,273.851 108.509,274.21 107.854,274.407C106.357,274.856 101.331,275.427 99.844,275.319C97.481,275.148 89.046,274.412 86.342,274.149C84.784,273.997 83.143,273.899 82.691,273.887C82.239,273.875 81.274,273.723 80.526,273.605C79.719,273.477 77.898,273.876 76.068,274.562C72.891,275.755 70.396,275.893 64.277,275.073C58.088,274.244 55.182,275.574 50.373,281.424C48.531,283.664 46.736,285.572 46.458,285.684C46.18,285.796 45.39,287.039 44.655,288.456C43.364,290.944 43.198,291.089 40.036,292.359L36.759,293.674L37.889,290.917C38.519,289.402 39.427,287.853 39.874,287.496C40.321,287.138 41.119,285.963 41.668,284.856C42.217,283.748 43.755,281.855 45.074,280.672C46.393,279.489 47.373,278.396 47.278,278.187C47.037,277.653 46.505,277.899 42.038,280.867C36.986,284.223 34.01,285.494 30.902,285.531C29.547,285.547 28.391,285.384 28.318,285.224C27.963,284.451 35.384,279.73 39.237,278.28C42.813,276.935 49.314,273.376 50.935,271.855C52.581,270.31 52.198,270.45 62.651,268.175C64.596,267.751 66.475,267.097 66.888,266.729C67.99,265.748 67.504,263.99 65.381,261.446C64.347,260.208 63.07,258.674 62.525,257.986C61.98,257.297 60.774,256.212 59.88,255.592C56.629,253.335 56.234,252.205 56.667,246.386C57.046,241.299 57.001,241.026 55.714,239.473C54.979,238.587 53.891,237.654 53.274,237.381C52.111,236.867 44.806,236.366 43.881,236.737C43.227,237 42.392,236.175 41.719,234.661C40.771,232.533 41.166,232.021 45.248,230.3C48.129,229.086 51.088,227.494 53.158,226.164L51.879,226.038L46.611,226.105C45.655,226.115 44.654,226.112 43.583,226.169C42.724,226.228 41.917,226.148 41.106,225.948C40.569,225.793 40.04,225.654 39.515,225.435C39.053,225.259 38.85,224.821 38.968,224.375C39.04,223.987 39.311,223.627 39.724,223.495C40.253,223.315 40.776,223.338 41.325,223.428L40.63,222.492L39.991,221.532L39.526,220.503C38.896,219.134 38.428,217.701 38.206,216.233L37.174,215.303C36.901,215.059 36.707,214.755 36.561,214.398C36.415,214.041 36.547,213.586 36.932,213.417C37.323,213.215 37.693,213.206 38.081,213.403L39.581,214.017C40.1,214.269 40.68,214.417 41.229,214.507C41.64,214.575 42.037,214.605 42.427,214.602L41.796,213.959L41.134,212.946L40.3,211.552L39.924,210.871C39.778,210.515 39.919,210.111 40.213,209.859C40.461,209.667 40.819,209.638 41.116,209.753C41.509,209.918 41.895,210.159 42.189,210.474C42.672,210.919 43.091,211.401 43.499,211.868C43.936,212.372 44.469,212.809 45.039,213.17C46.046,213.835 46.821,214.357 47.669,214.929C48.266,215.327 49.18,215.738 50.071,215.885C50.174,215.902 50.275,215.922 50.35,215.901C50.761,215.969 51.157,215.764 51.36,215.431C51.453,215.313 51.501,215.174 51.525,215.045C51.555,214.883 51.517,214.744 51.444,214.566C51.259,214.036 51.161,213.454 51.16,212.887C51.137,212.251 51.326,211.642 51.64,211.095C51.908,210.606 52.55,210.479 52.969,210.881C53.18,211.082 53.37,211.417 53.419,211.724C53.696,213.468 54.035,215.157 54.434,216.821L60.922,217.8L61.752,217.082L62.936,215.647C63.93,214.479 64.778,213.208 65.447,211.887C65.901,210.963 66.226,209.986 66.446,208.99C66.498,208.898 66.533,208.823 66.545,208.758C66.677,208.047 66.652,207.382 66.566,206.702C66.445,206.016 66.196,205.32 65.766,204.783C65.426,204.328 64.996,203.896 64.645,203.505C64.049,202.908 63.455,202.341 62.761,201.894C62.032,201.441 61.235,201.166 60.384,200.992C59.744,200.821 58.977,200.636 58.235,200.447C57.761,200.336 57.436,200.303 57.128,200.252C56.579,200.162 56.105,200.081 55.544,200.056C54.738,200.023 53.873,199.966 53.01,199.857L51.894,199.793C51.34,199.735 50.778,199.492 50.312,199.149C49.971,198.893 49.822,198.533 49.929,198.151C50.018,197.666 50.373,197.255 50.866,197.07C51.326,196.879 51.869,196.722 52.401,196.71C53.008,196.677 53.612,196.732 54.247,196.737L57.904,194.309L57.454,193.465C56.918,192.545 56.526,191.557 56.328,190.525C56.258,190.147 56.463,189.772 56.757,189.521C57.005,189.329 57.333,189.277 57.635,189.361C57.944,189.411 58.242,189.569 58.447,189.803C58.707,190.112 58.923,190.486 59.109,190.817C59.34,191.288 59.634,191.693 59.951,192.078C60.269,192.464 60.564,192.788 60.893,193.108C61.103,193.309 61.371,193.527 61.581,193.728L61.95,193.644L62.623,193.63L64.6,193.796L66.544,194.039L68.939,194.229C69.7,194.321 70.486,194.262 71.163,194.04L71.443,193.608C71.6,193.334 71.643,193.063 71.691,192.804C71.703,192.74 71.745,192.715 71.757,192.65C71.777,192.354 71.804,192.077 71.783,191.807C71.803,191.511 71.735,191.184 71.646,190.903C71.585,190.66 71.516,190.414 71.41,190.23C71.359,190.122 71.244,190 71.148,189.951C70.988,189.858 70.811,189.791 70.664,189.633C70.482,189.47 70.247,189.258 70.025,189.122C69.797,189.017 69.542,188.901 69.32,188.765L68.157,188.144L67.263,187.671C66.813,187.43 66.358,187.109 66.035,186.756C65.791,186.549 65.656,186.372 65.486,186.144C65.316,185.917 65.25,185.573 65.373,185.294C65.652,184.74 66.261,184.445 66.901,184.616C68.242,185.004 69.488,185.551 70.655,186.309C70.717,186.352 70.845,186.411 70.983,186.433C71.051,186.444 71.077,186.401 71.18,186.418C71.69,186.336 72.206,185.987 72.33,185.508C72.418,185.223 72.465,184.936 72.554,184.65C72.559,184.618 72.581,184.605 72.587,184.573C72.646,184.25 72.59,183.959 72.507,183.645C72.44,183.435 72.289,183.156 72.073,182.987C71.772,182.705 71.514,182.453 71.172,182.197C70.615,181.772 70.095,181.272 69.699,180.741C69.529,180.513 69.495,180.275 69.577,180.022C69.654,179.801 69.808,179.583 69.98,179.412C70.107,179.3 70.257,179.264 70.44,179.227L70.44,179.227ZM61.63,197.291C61.481,197.333 61.318,197.434 61.219,197.584C61.133,197.67 61.183,197.845 61.309,197.932C61.878,198.292 62.457,198.607 63.038,198.902C63.591,199.16 64.164,199.34 64.735,199.501C64.907,199.529 65.087,199.597 65.236,199.556C65.854,199.458 66.468,199.382 67.041,199.343C67.19,199.301 67.379,199.238 67.55,199.266C67.584,199.272 67.565,199.369 67.599,199.375C67.942,199.431 68.229,199.555 68.468,199.794C68.558,199.875 68.662,199.961 68.672,200.096C68.682,200.23 68.58,200.461 68.556,200.59C68.55,200.622 68.581,200.644 68.581,200.644C68.527,200.935 68.417,201.179 68.357,201.502C68.281,201.723 68.316,201.959 68.315,202.159L68.371,202.584C68.529,202.876 68.712,203.244 68.87,203.536C69.309,204.407 69.591,205.34 69.725,206.328L69.855,206.916C70.401,206.64 70.962,206.337 71.457,205.953C71.711,205.728 71.996,205.471 72.312,205.29C72.548,205.162 72.776,205.076 73.051,205.121C73.462,205.189 73.812,205.52 73.836,205.957C73.841,206.124 73.857,206.376 73.827,206.537C73.803,206.666 73.754,206.722 73.695,206.846C73.601,207.163 73.422,207.409 73.169,207.634C72.621,208.109 72.157,208.611 71.672,209.13C71.187,209.65 70.681,210.178 70.224,210.736C69.329,211.753 68.52,212.85 67.887,213.978C67.4,214.697 66.948,215.466 66.455,216.217L65.838,217.105L65.92,217.136C68.186,216.344 70.382,215.326 72.441,214.134C73.234,213.665 73.911,213.156 74.586,212.568C75.392,211.836 76.141,211.008 76.732,210.106C77.179,209.414 77.524,208.656 77.771,207.897C77.853,207.645 77.913,207.375 77.961,207.117C78.117,206.277 78.036,205.385 77.876,204.527C77.547,202.875 76.707,201.367 75.441,200.193C74.595,199.421 73.645,198.801 72.59,198.394C71.506,197.95 70.319,197.598 69.154,197.406C68.821,197.343 68.463,197.293 68.129,197.242C67.124,197.089 66.095,196.978 65.069,196.934C64.891,196.939 64.678,196.947 64.535,196.957C64.358,196.961 64.214,196.98 64.002,196.979C63.893,196.994 63.725,197.044 63.575,197.086C63.14,197.148 62.735,197.149 62.311,197.146C62.06,197.171 61.854,197.228 61.63,197.291L61.63,197.291L61.63,197.291ZM42.019,217.005C42.011,218.003 42.198,218.967 42.563,219.859C43.029,220.968 43.841,221.973 44.871,222.708C45.155,222.888 45.481,223.086 45.846,223.212C46.114,223.29 46.358,223.289 46.592,223.361C46.729,223.383 46.898,223.416 47.035,223.439C47.138,223.456 47.188,223.467 47.257,223.478L47.683,223.371C47.646,222.998 47.479,222.651 47.218,222.341C46.838,221.913 46.544,221.424 46.359,220.894C46.315,220.754 46.273,220.631 46.303,220.469C46.345,220.243 46.52,220.095 46.755,219.967C47.065,219.819 47.453,219.729 47.831,219.792C47.934,219.808 48.031,219.845 48.134,219.862C48.602,220.005 49.023,220.239 49.462,220.545C49.906,220.817 50.381,221.126 50.772,221.49C51.13,221.849 51.473,222.198 51.796,222.551L52.164,222.915C53.671,223.363 55.238,223.577 56.823,223.604L57.972,223.591L58.702,223.554C58.653,223.246 58.593,222.885 58.4,222.587C58.186,222.219 57.992,221.83 57.656,221.542C57.236,221.14 56.67,220.764 56.157,220.48C55.491,220.071 54.77,219.762 54.034,219.541C52.67,219.083 51.284,218.689 49.827,218.35L48.999,218.17L48.392,218.03L47.064,217.796L43.848,217.295L42.019,217.005L42.019,217.005L42.019,217.005Z" style="fill-rule:nonzero;"/>
        <path id="path3134" d="M567.659,246.175C566.619,246.174 565.531,246.372 564.222,246.815C561.845,247.62 559.802,249.55 559.666,251.108C559.529,252.666 558.714,253.886 557.867,253.82C557.02,253.754 556.493,255.01 556.668,256.531C557.063,259.969 551.37,265.766 547.875,265.494C546.446,265.383 545.147,266.321 545.037,267.565C544.912,268.996 543.945,269.377 542.359,268.657C540.979,268.031 540.639,267.186 541.56,266.736C542.479,266.287 531.012,264.867 516.06,263.648C512.715,263.376 510.158,263.188 507.627,263.008L507.627,262.971C507.627,262.971 398.976,252.747 273.252,248.359C241.819,247.262 213.073,246.682 187.679,246.476C162.285,246.271 140.234,246.428 122.091,246.702C85.804,247.251 65.216,248.359 65.216,248.359L64.896,248.435C64.896,248.435 85.875,249.133 122.131,248.585C158.386,248.037 210.348,248.05 273.172,250.242C398.824,254.627 507.427,264.854 507.427,264.854C511.6,265.422 516.126,265.906 519.937,266.247C527.243,266.9 534.811,268.445 536.843,269.674C544.765,274.463 544.838,274.649 540.001,278.222C534.489,282.294 532.875,282.308 531.048,278.335C530.282,276.671 528.416,274.753 526.931,274.08C523.614,272.575 518.737,276.09 520.256,278.9C521.076,280.416 521.988,280.246 523.814,278.26C527.14,274.641 528.596,276.797 525.692,281.047C521.697,286.895 518.372,288.003 513.542,285.151C511.202,283.77 508.172,282.551 506.747,282.44C501.974,282.068 496.217,286.238 493.637,291.967C491.493,296.731 491.413,298.608 493.118,303.566C494.236,306.817 496.431,310.057 497.994,310.759C499.557,311.46 501.659,312.963 502.67,314.073C505.895,317.613 530.394,325.854 545.477,328.496C570.102,332.809 587.462,334.001 593.479,331.735C597.838,330.093 598.92,328.766 599.274,324.73C599.803,318.699 597.533,315.875 591.8,315.429C588.832,315.197 586.818,316.22 585.365,318.667C583.344,322.072 583.691,324.114 586.284,324.316C586.949,324.367 587.263,323.028 586.964,321.416C586.384,318.296 590.119,316.934 595.277,318.403C598.842,319.419 598.481,324.88 594.598,328.308C590.765,331.691 580.913,331.056 579.77,327.366C579.316,325.904 577.718,323.317 576.212,321.642C572.866,317.921 572.914,315.504 576.292,315.767C581.509,316.173 586.943,309.88 588.842,301.344C591.317,290.224 593.41,287.635 599.234,288.089C602.824,288.368 603.824,287.84 603.271,286.055C602.865,284.744 601.308,283.597 599.834,283.457C597.463,283.23 597.491,282.996 600.154,281.8C601.81,281.056 603.793,280.859 604.55,281.386C605.307,281.912 606.487,281.322 607.148,280.03C608.938,276.527 608.769,276.027 605.989,276.791C604.451,277.214 602.53,275.942 601.153,273.553C598.365,268.719 591.283,265.92 581.168,265.682C574.257,265.519 573.37,265.125 572.775,261.728C571.868,256.547 573.412,255.106 579.53,255.439C582.404,255.595 583.673,255.237 582.367,254.648C581.062,254.06 579.687,253.063 579.29,252.426C578.893,251.79 576.371,249.897 573.614,248.284C571.086,246.804 569.393,246.177 567.659,246.175L567.659,246.175ZM506.587,285.716C506.873,285.707 507.148,285.732 507.427,285.754C509.658,285.931 511.683,287.131 513.662,289.331C515.853,291.768 516.422,293.862 515.5,296.411C515.391,296.713 515.296,296.978 515.221,297.24C515.213,297.265 515.187,297.29 515.181,297.315C513.408,300.5 509.56,302.228 506.308,300.516C505.129,299.895 504.135,298.775 503.67,297.503C503.205,296.232 503.193,294.88 503.909,293.662C504.291,293.013 505.056,292.42 505.788,292.193C506.521,291.967 507.153,292.05 507.706,292.608C508.081,292.982 508.668,292.963 509.025,292.57C509.383,292.178 509.36,291.551 508.986,291.177C508.454,290.641 507.836,290.328 507.187,290.198C506.538,290.068 505.874,290.123 505.268,290.311C504.058,290.685 502.999,291.543 502.351,292.645C501.311,294.414 501.314,296.44 501.951,298.181C502.588,299.922 503.851,301.434 505.468,302.286C509.047,304.17 513.11,302.871 515.62,299.989C515.886,300.133 516.23,300.181 516.66,300.215C519.851,300.463 519.538,304.51 516.26,305.411C514.886,305.789 512.662,308.063 511.304,310.458C508.565,315.287 507.063,314.905 498.514,306.767C492.616,301.153 493.283,292.306 499.873,288.202C502.418,286.616 504.59,285.783 506.587,285.716L506.587,285.716L506.587,285.716ZM519.417,306.692C519.876,306.702 520.37,306.723 520.936,306.767C525.616,307.131 526.346,307.982 528.85,315.165C531.866,323.818 531.175,324.403 522.735,320.136C517.351,317.414 515.839,311.891 520.856,313.282C522.402,313.711 523.506,315.269 523.254,316.709C523.002,318.149 523.454,319.358 524.253,319.42C527.168,319.647 526.052,313.532 522.975,312.341C518.802,310.726 516.456,312.05 516.1,316.106C515.905,318.331 515.326,318.865 514.301,317.726C513.466,316.797 513.412,313.904 514.221,311.248C515.345,307.564 516.203,306.621 519.417,306.692L519.417,306.692ZM530.808,309.177C532.084,309.133 534.29,309.695 537.803,310.646C541.664,311.691 542.581,312.624 541.72,314.6C541.098,316.026 541.551,318.04 542.719,319.119C545.707,321.877 550.772,320.218 550.113,316.671C549.684,314.363 550.425,314.001 555.869,314.675C555.748,316.864 556.29,314.728 556.468,314.751C556.81,314.795 557.09,314.85 557.467,314.901C563.801,315.755 565.993,316.773 568.459,320.286C570.154,322.703 572.36,324.294 573.335,323.826C574.31,323.358 575.65,324.029 576.332,325.257C578.296,328.792 577.593,330.389 575.093,328.082C573.516,326.625 572.76,326.473 572.655,327.667C566.7,330.022 558.15,327.88 553.265,326.85C551.38,326.502 549.367,326.421 547.675,325.973C541.813,324.421 537.337,320.109 537.563,316.295C537.623,315.284 536.975,314.024 536.124,313.433C535.097,312.718 534.957,313.715 535.804,316.483C537.368,321.587 537.335,322.05 535.485,321.906C534.676,321.843 532.745,318.887 531.168,315.353C529.223,310.996 528.682,309.25 530.808,309.177L530.808,309.177ZM553.483,326.747C553.682,326.784 554.356,326.824 554.557,326.86C557.048,324.013 557.556,317.477 556.997,314.751C556.793,314.724 556.061,314.699 555.869,314.675C555.783,315.488 555.595,316.542 555.589,316.596C555.452,317.745 555.012,319.108 554.535,321.765C554.102,324.179 553.533,325.719 553.483,326.747L553.483,326.747ZM545.557,313.659C546.332,313.685 547.124,314.022 547.915,314.901C549.072,316.188 549.074,317.231 547.795,318.253C546.515,319.274 545.389,318.971 544.158,317.311C542.624,315.246 543.852,313.601 545.557,313.659L545.557,313.659ZM570.417,316.822C571.352,316.894 572.437,318.072 572.855,319.42C574.009,323.146 572.374,323.45 570.417,319.872C569.321,317.869 569.341,316.738 570.417,316.822L570.417,316.822ZM592.4,320.173C591.994,320.142 591.373,320.888 590.641,322.32C590.012,323.55 590.21,324.587 591.081,324.655C591.952,324.723 592.808,323.741 592.919,322.471C593.049,320.992 592.806,320.205 592.4,320.173L592.4,320.173Z" style="fill-rule:nonzero;"/>
    </g>
</svg>
