<?xml version="1.0" encoding="UTF-8" standalone="no"?>
<!DOCTYPE svg PUBLIC "-//W3C//DTD SVG 1.1//EN" "http://www.w3.org/Graphics/SVG/1.1/DTD/svg11.dtd">
<svg width="100%" height="100%" viewBox="0 0 880 355" version="1.1" xmlns="http://www.w3.org/2000/svg" xmlns:xlink="http://www.w3.org/1999/xlink" xml:space="preserve" xmlns:serif="http://www.serif.com/" style="fill-rule:evenodd;clip-rule:evenodd;stroke-linejoin:round;stroke-miterlimit:2;">
    <g transform="matrix(4.16667,0,0,4.16667,0,-0.762501)">
        <rect x="2.449" y="3.085" width="203.279" height="78.691" style="fill:white;"/>
    </g>
    <g transform="matrix(4.16667,0,0,4.16667,0,-0.762501)">
        <path d="M211.181,0.183L0,0.183L0,85.223L211.181,85.223L211.181,0.183ZM84.908,8.389L70.329,76.837L47.451,76.837L33.068,29.474L32.874,29.474L23.305,76.837L5.956,76.837L20.651,8.389L43.606,8.389L57.706,55.853L57.899,55.853L67.558,8.389L84.908,8.389ZM150.342,8.389L136.049,76.837L117.626,76.837L123.735,47.52L101.946,47.52L95.834,76.837L77.411,76.837L91.706,8.389L110.129,8.389L104.717,34.575L126.495,34.575L131.919,8.389L150.342,8.389ZM203.271,10.256L198.83,23.884C195.283,22.222 190.451,20.754 183.655,20.754C176.367,20.754 170.449,21.822 170.449,27.323C170.449,37.022 197.159,33.403 197.159,54.193C197.159,73.114 179.513,78.023 163.548,78.023C156.453,78.023 148.271,76.346 142.264,74.479L146.601,60.556C150.238,62.913 157.542,64.485 163.548,64.485C169.272,64.485 178.23,63.402 178.23,56.344C178.23,45.357 151.521,49.478 151.521,30.169C151.521,12.51 167.098,7.216 182.178,7.216C190.66,7.216 198.637,8.105 203.271,10.256Z" style="fill:rgb(0,114,188);fill-rule:nonzero;"/>
    </g>
</svg>
