<?xml version="1.0" encoding="UTF-8" standalone="no"?>
<!DOCTYPE svg PUBLIC "-//W3C//DTD SVG 1.1//EN" "http://www.w3.org/Graphics/SVG/1.1/DTD/svg11.dtd">
<svg width="100%" height="100%" viewBox="0 0 591 89" version="1.1" xmlns="http://www.w3.org/2000/svg" xmlns:xlink="http://www.w3.org/1999/xlink" xml:space="preserve" xmlns:serif="http://www.serif.com/" style="fill-rule:evenodd;clip-rule:evenodd;stroke-linejoin:round;stroke-miterlimit:2;">
    <g>
        <g>
            <g>
                <path d="M399.5,10.6L381.2,10.6L379,23.4L395.8,23.4L394.1,32.9L377.3,32.9L373.8,53L362.1,53L371.2,1.1L401.2,1.1L399.5,10.6Z" style="fill:white;fill-rule:nonzero;"/>
                <path d="M422.4,53.9C415,53.9 409.4,51.5 405.5,46.7C401.7,41.9 400.5,35.6 401.8,27.8C403.3,19.6 406.8,13 412.4,7.9C418,2.8 424.8,0.3 432.6,0.3C440,0.3 445.6,2.7 449.3,7.6C453,12.4 454.2,18.8 452.8,26.8C451.4,35 447.8,41.5 442.2,46.5C436.6,51.4 430,53.9 422.4,53.9ZM430.6,10.3C426.5,10.3 423,11.8 420,14.9C417,18 415.1,22 414.2,27.1C413.3,32.2 413.8,36.3 415.7,39.3C417.6,42.3 420.5,43.8 424.4,43.8C428.4,43.8 431.9,42.4 434.8,39.4C437.7,36.4 439.6,32.5 440.5,27.3C441.5,21.9 441,17.7 439.3,14.7C437.4,11.8 434.5,10.3 430.6,10.3Z" style="fill:white;fill-rule:nonzero;"/>
                <path d="M500.3,53L486.9,53L481.2,39.7C480.8,38.7 480.4,37.8 479.9,37C479.5,36.2 479,35.5 478.6,35C478.1,34.4 477.6,34 477.1,33.7C476.6,33.4 475.9,33.3 475.2,33.3L472,33.3L468.5,53L456.8,53L465.9,1.1L484.4,1.1C497,1.1 502.4,5.8 500.8,15.2C500.5,17 499.9,18.7 499.1,20.2C498.3,21.7 497.2,23.1 496,24.3C494.8,25.5 493.4,26.6 491.8,27.5C490.2,28.4 488.5,29.1 486.6,29.6L486.6,29.8C487.3,30 488,30.4 488.6,31C489.2,31.5 489.8,32.2 490.4,32.9C490.9,33.6 491.5,34.4 491.9,35.2C492.4,36 492.8,36.9 493.1,37.6L500.3,53ZM476.1,9.9L473.6,24.3L478.7,24.3C481.2,24.3 483.3,23.6 485.1,22.1C486.9,20.6 488,18.8 488.4,16.6C489.2,12.1 486.9,9.8 481.5,9.8L476.1,9.8L476.1,9.9Z" style="fill:white;fill-rule:nonzero;"/>
                <path d="M542.6,51.2C538.5,53 533.4,54 527.3,54C519.3,54 513.5,51.7 509.8,47C506.1,42.3 504.9,36.1 506.3,28.3C507.8,20 511.5,13.3 517.5,8.1C523.5,2.9 530.6,0.4 538.8,0.4C543.9,0.4 548,1 551.3,2.3L549.3,13.5C546.2,11.4 542.4,10.4 538,10.4C533.1,10.4 528.9,11.9 525.4,15C521.9,18.1 519.6,22.2 518.7,27.4C517.8,32.4 518.5,36.4 520.8,39.4C523.1,42.4 526.6,43.9 531.4,43.9C536,43.9 540.3,42.8 544.5,40.6L542.6,51.2Z" style="fill:white;fill-rule:nonzero;"/>
                <path d="M582.5,53L551.4,53L560.5,1.1L590.4,1.1L588.7,10.6L570.5,10.6L568.5,22.1L585.5,22.1L583.8,31.6L566.8,31.6L564.7,43.5L584.1,43.5L582.5,53Z" style="fill:white;fill-rule:nonzero;"/>
            </g>
            <g>
                <path d="M217.9,9.7L199.2,9.7L196.9,22.7L214.1,22.7L212.4,32.4L195.2,32.4L191.6,53L179.7,53L189,0L219.6,0L217.9,9.7Z" style="fill:white;fill-rule:nonzero;"/>
                <path d="M266.3,30C263.5,45.9 254.7,53.9 239.8,53.9C225.4,53.9 219.6,46.1 222.3,30.6L227.7,0L239.7,0L234.3,30.7C232.8,39.3 235.4,43.5 242.1,43.5C248.7,43.5 252.7,39.4 254.1,31.1L259.6,0L271.5,0L266.3,30Z" style="fill:white;fill-rule:nonzero;"/>
                <path d="M305.3,53L273.8,53L283.1,0L295,0L287.4,43.3L307,43.3L305.3,53Z" style="fill:white;fill-rule:nonzero;"/>
                <path d="M344,53L312.5,53L321.8,0L333.7,0L326,43.3L345.6,43.3L344,53Z" style="fill:white;fill-rule:nonzero;"/>
            </g>
        </g>
        <g>
            <path d="M243.4,80.8L245.4,80.8L244.2,86.6C243.3,87.2 242.4,87.7 241.3,88C240.2,88.3 239.2,88.5 238.1,88.5C236.6,88.5 235.3,88.2 234.3,87.5C233.3,86.8 232.5,85.9 232,84.8C231.6,83.7 231.5,82.4 231.8,80.9C232.1,79.5 232.7,78.2 233.7,77C234.6,75.8 235.8,74.9 237.1,74.3C238.5,73.7 239.9,73.3 241.4,73.3C242.6,73.3 243.6,73.5 244.5,73.9C245.4,74.3 246.1,74.9 246.6,75.6L245,76.9C244.1,75.8 242.7,75.2 241.1,75.2C240,75.2 238.9,75.4 237.9,75.9C236.9,76.4 236,77.1 235.4,77.9C234.7,78.8 234.2,79.8 234,80.8C233.8,81.9 233.8,82.9 234.1,83.7C234.4,84.6 235,85.3 235.8,85.8C236.6,86.3 237.6,86.5 238.7,86.5C240,86.5 241.3,86.2 242.4,85.6L243.4,80.8Z" style="fill:white;fill-rule:nonzero;"/>
            <path d="M268.7,84.6L260.8,84.6L258.4,88.3L256.2,88.3L266.1,73.4L268.2,73.4L271.8,88.3L269.6,88.3L268.7,84.6ZM268.3,82.9L266.6,75.6L261.9,82.9L268.3,82.9Z" style="fill:white;fill-rule:nonzero;"/>
            <path d="M298.4,88.3L300.7,77.5L293.4,86.5L292.4,86.5L288.9,77.6L286.6,88.4L284.6,88.4L287.7,73.5L289.4,73.5L293.4,83.9L301.7,73.5L303.4,73.5L300.3,88.4L298.4,88.3Z" style="fill:white;fill-rule:nonzero;"/>
            <path d="M318.6,73.5L320.7,73.5L317.6,88.4L315.5,88.4L318.6,73.5Z" style="fill:white;fill-rule:nonzero;"/>
            <path d="M348.6,73.5L345.5,88.4L343.8,88.4L337.2,77.3L334.9,88.4L332.8,88.4L335.9,73.5L337.6,73.5L344.2,84.6L346.5,73.5L348.6,73.5Z" style="fill:white;fill-rule:nonzero;"/>
            <path d="M372.4,80.8L374.4,80.8L373.2,86.6C372.3,87.2 371.4,87.7 370.3,88C369.3,88.3 368.2,88.5 367.1,88.5C365.6,88.5 364.3,88.2 363.3,87.5C362.3,86.8 361.5,85.9 361,84.8C360.6,83.7 360.5,82.4 360.8,80.9C361.1,79.5 361.7,78.2 362.7,77C363.6,75.8 364.8,74.9 366.1,74.3C367.4,73.7 368.9,73.3 370.4,73.3C371.6,73.3 372.6,73.5 373.5,73.9C374.4,74.3 375.1,74.9 375.6,75.6L374,76.9C373,75.8 371.7,75.2 370.1,75.2C369,75.2 367.9,75.4 366.9,75.9C365.9,76.4 365,77.1 364.4,77.9C363.8,78.7 363.2,79.8 363,80.8C362.8,81.9 362.8,82.9 363.1,83.7C363.4,84.5 364,85.3 364.8,85.8C365.6,86.3 366.6,86.5 367.7,86.5C369,86.5 370.3,86.2 371.4,85.6L372.4,80.8Z" style="fill:white;fill-rule:nonzero;"/>
            <path d="M415.6,80.8L417.6,80.8L416.4,86.6C415.5,87.2 414.6,87.7 413.5,88C412.5,88.3 411.4,88.5 410.3,88.5C408.8,88.5 407.5,88.2 406.5,87.5C405.5,86.8 404.7,85.9 404.2,84.8C403.8,83.7 403.7,82.4 404,80.9C404.3,79.5 404.9,78.2 405.9,77C406.8,75.8 408,74.9 409.3,74.3C410.6,73.7 412.1,73.3 413.6,73.3C414.8,73.3 415.8,73.5 416.7,73.9C417.6,74.3 418.3,74.9 418.8,75.6L417.2,76.9C416.2,75.8 414.9,75.2 413.3,75.2C412.2,75.2 411.1,75.4 410.1,75.9C409.1,76.4 408.2,77.1 407.6,77.9C407,78.7 406.4,79.8 406.2,80.8C406,81.9 406,82.9 406.3,83.7C406.6,84.5 407.2,85.3 408,85.8C408.8,86.3 409.8,86.5 410.9,86.5C412.2,86.5 413.5,86.2 414.6,85.6L415.6,80.8Z" style="fill:white;fill-rule:nonzero;"/>
            <path d="M440.7,88.3L438.5,83.7L433.9,83.7L432.9,88.2L430.8,88.2L433.9,73.3L439.7,73.3C441.6,73.3 443,73.8 443.9,74.7C444.8,75.6 445.1,76.9 444.8,78.5C444.6,79.6 444.1,80.6 443.3,81.4C442.5,82.2 441.6,82.8 440.5,83.2L443,88.2L440.7,88.3ZM441.1,81.1C441.9,80.5 442.5,79.7 442.7,78.6C442.9,77.5 442.7,76.7 442.2,76.1C441.7,75.5 440.7,75.2 439.3,75.2L435.7,75.2L434.3,81.9L437.9,81.9C439.2,82 440.3,81.7 441.1,81.1Z" style="fill:white;fill-rule:nonzero;"/>
            <path d="M459.6,87.5C458.5,86.8 457.8,85.9 457.3,84.8C456.9,83.6 456.8,82.4 457.1,80.9C457.4,79.5 458,78.2 459,77C460,75.8 461.1,74.9 462.4,74.3C463.7,73.6 465.2,73.3 466.7,73.3C468.2,73.3 469.5,73.6 470.5,74.3C471.5,75 472.3,75.9 472.7,77C473.1,78.1 473.2,79.4 472.9,80.9C472.6,82.4 472,83.6 471.1,84.8C470.2,85.9 469.1,86.9 467.7,87.5C466.4,88.2 464.9,88.5 463.5,88.5C462,88.5 460.7,88.2 459.6,87.5ZM466.9,85.9C467.9,85.4 468.7,84.7 469.4,83.8C470.1,82.9 470.5,82 470.8,80.9C471,79.8 471,78.8 470.7,78C470.4,77.2 469.8,76.4 469.1,75.9C468.3,75.4 467.4,75.2 466.3,75.2C465.2,75.2 464.2,75.4 463.2,75.9C462.2,76.4 461.4,77.1 460.7,78C460,78.9 459.6,79.8 459.3,80.9C459.1,82 459.1,83 459.4,83.8C459.7,84.6 460.3,85.4 461,85.9C461.8,86.4 462.7,86.6 463.8,86.6C464.9,86.6 466,86.4 466.9,85.9Z" style="fill:white;fill-rule:nonzero;"/>
            <path d="M487.1,86.8C486.2,85.7 486,84 486.5,81.9L488.3,73.5L490.4,73.5L488.6,81.9C487.9,85.1 489,86.7 491.8,86.7C493.2,86.7 494.3,86.3 495.2,85.5C496.1,84.7 496.7,83.5 497,81.9L498.8,73.5L500.9,73.5L499.1,81.9C498.6,84 497.7,85.7 496.4,86.8C495.1,87.9 493.4,88.5 491.4,88.5C489.4,88.5 487.9,87.9 487.1,86.8Z" style="fill:white;fill-rule:nonzero;"/>
            <path d="M525.8,74.9C526.7,75.8 527,77.1 526.6,78.7C526.3,80.3 525.4,81.6 524.1,82.5C522.8,83.4 521.2,83.9 519.3,83.9L515.6,83.9L514.6,88.4L512.5,88.4L515.6,73.5L521.4,73.5C523.5,73.5 524.9,73.9 525.8,74.9ZM522.9,81.1C523.7,80.5 524.2,79.7 524.5,78.6C524.7,77.5 524.5,76.7 524,76.1C523.4,75.5 522.5,75.2 521.1,75.2L517.5,75.2L516.1,81.9L519.7,81.9C521,82 522.1,81.7 522.9,81.1Z" style="fill:white;fill-rule:nonzero;"/>
        </g>
        <path d="M2.1,21L72.7,21C73.6,21 74.4,20.4 74.5,19.6L77.2,2.8C77.4,1.6 76.4,0.6 75.1,0.6L4.5,0.6C3.6,0.4 2.8,1 2.7,1.9L0,18.7C-0.2,19.9 0.8,21 2.1,21Z" style="fill:url(#_Linear1);fill-rule:nonzero;"/>
        <path d="M17.7,52.1L68.2,52.1C69.1,52.1 69.9,51.5 70,50.7L72.7,33.9C72.9,32.7 71.9,31.7 70.6,31.7L20.1,31.7C19.2,31.7 18.5,32.3 18.3,33.1L15.6,49.9C15.5,51 16.5,52.1 17.7,52.1Z" style="fill:url(#_Linear2);fill-rule:nonzero;"/>
        <path d="M41,83.6L64.3,83.6C65.2,83.6 66,83 66.1,82.2L68.8,65.4C69,64.2 68,63.2 66.7,63.2L43.4,63.2C42.5,63.2 41.7,63.8 41.6,64.6L38.9,81.4C38.7,82.5 39.7,83.6 41,83.6Z" style="fill:url(#_Linear3);fill-rule:nonzero;"/>
        <path d="M156.2,21L85.6,21C84.7,21 84.1,20.4 84.3,19.6L86.6,2.8C86.8,1.6 88.1,0.6 89.3,0.6L159.9,0.6C160.8,0.6 161.4,1.2 161.3,2.1L159,18.9C158.7,19.9 157.4,21 156.2,21Z" style="fill:url(#_Linear4);fill-rule:nonzero;"/>
        <path d="M131.3,52.1L80.8,52.1C79.9,52.1 79.3,51.5 79.5,50.7L81.8,33.9C82,32.7 83.3,31.7 84.5,31.7L135,31.7C135.9,31.7 136.5,32.3 136.4,33.1L134,49.8C133.8,51 132.5,52.1 131.3,52.1Z" style="fill:url(#_Linear5);fill-rule:nonzero;"/>
        <path d="M98.6,83.6L75.4,83.6C74.5,83.6 73.9,83 74.1,82.2L76.4,65.4C76.6,64.2 77.9,63.2 79.1,63.2L102.4,63.2C103.3,63.2 103.9,63.8 103.7,64.6L101.4,81.4C101.2,82.5 99.9,83.6 98.6,83.6Z" style="fill:url(#_Linear6);fill-rule:nonzero;"/>
    </g>
    <defs>
        <linearGradient id="_Linear1" x1="0" y1="0" x2="1" y2="0" gradientUnits="userSpaceOnUse" gradientTransform="matrix(77.1124,0,0,77.1124,-0.0255469,10.7807)"><stop offset="0" style="stop-color:rgb(205,170,133);stop-opacity:1"/><stop offset="1" style="stop-color:rgb(158,120,45);stop-opacity:1"/></linearGradient>
        <linearGradient id="_Linear2" x1="0" y1="0" x2="1" y2="0" gradientUnits="userSpaceOnUse" gradientTransform="matrix(57.0522,0,0,57.0522,15.5931,41.9)"><stop offset="0" style="stop-color:rgb(205,170,133);stop-opacity:1"/><stop offset="1" style="stop-color:rgb(158,120,45);stop-opacity:1"/></linearGradient>
        <linearGradient id="_Linear3" x1="0" y1="0" x2="1" y2="0" gradientUnits="userSpaceOnUse" gradientTransform="matrix(29.8245,0,0,29.8245,38.8745,73.4)"><stop offset="0" style="stop-color:rgb(205,170,133);stop-opacity:1"/><stop offset="1" style="stop-color:rgb(158,120,45);stop-opacity:1"/></linearGradient>
        <linearGradient id="_Linear4" x1="0" y1="0" x2="1" y2="0" gradientUnits="userSpaceOnUse" gradientTransform="matrix(77.0494,0,0,77.0494,84.2615,10.8)"><stop offset="0" style="stop-color:rgb(205,170,133);stop-opacity:1"/><stop offset="1" style="stop-color:rgb(158,120,45);stop-opacity:1"/></linearGradient>
        <linearGradient id="_Linear5" x1="0" y1="0" x2="1" y2="0" gradientUnits="userSpaceOnUse" gradientTransform="matrix(56.9494,0,0,56.9494,79.4615,41.9)"><stop offset="0" style="stop-color:rgb(205,170,133);stop-opacity:1"/><stop offset="1" style="stop-color:rgb(158,120,45);stop-opacity:1"/></linearGradient>
        <linearGradient id="_Linear6" x1="0" y1="0" x2="1" y2="0" gradientUnits="userSpaceOnUse" gradientTransform="matrix(29.6771,0,0,29.6771,73.9951,73.4)"><stop offset="0" style="stop-color:rgb(205,170,133);stop-opacity:1"/><stop offset="1" style="stop-color:rgb(158,120,45);stop-opacity:1"/></linearGradient>
    </defs>
</svg>
