<?xml version="1.0" encoding="UTF-8" standalone="no"?>
<!DOCTYPE svg PUBLIC "-//W3C//DTD SVG 1.1//EN" "http://www.w3.org/Graphics/SVG/1.1/DTD/svg11.dtd">
<svg width="100%" height="100%" viewBox="0 0 488 345" version="1.1" xmlns="http://www.w3.org/2000/svg" xmlns:xlink="http://www.w3.org/1999/xlink" xml:space="preserve" xmlns:serif="http://www.serif.com/" style="fill-rule:evenodd;clip-rule:evenodd;stroke-linejoin:round;stroke-miterlimit:2;">
    <g transform="matrix(1,0,0,1,-379.19,-235.586)">
        <path d="M639.032,534.261L671.512,557.245L639.195,580.081L606.536,557.223L639.032,534.261L606.552,511.278L639.048,488.316L606.567,465.333L541.576,511.256L411.655,419.322L444.15,396.361L379.19,350.394L444.171,304.478L476.652,327.461L509.157,304.492L476.677,281.509L541.669,235.586L606.629,281.553L639.125,258.591L671.605,281.575L639.109,304.536L671.59,327.52L704.085,304.558L801.526,373.508L736.535,419.432L769.015,442.415L639.032,534.261ZM833.813,442.563L801.317,465.524L833.976,488.382L866.293,465.546L833.813,442.563ZM834.022,350.547L801.526,373.508L834.185,396.366L866.502,373.53L834.022,350.547Z" style="fill:white;"/>
    </g>
</svg>
