<?xml version="1.0" encoding="UTF-8"?> <!-- Generator: Adobe Illustrator 24.1.0, SVG Export Plug-In . SVG Version: 6.00 Build 0) --> <svg xmlns="http://www.w3.org/2000/svg" xmlns:xlink="http://www.w3.org/1999/xlink" version="1.1" id="Layer_1" x="0px" y="0px" viewBox="0 0 590.4 88.5" style="enable-background:new 0 0 590.4 88.5;" xml:space="preserve"> <style type="text/css"> .st0{fill:#FFFFFF;} .st1{fill:url(#SVGID_1_);} .st2{fill:url(#SVGID_2_);} .st3{fill:url(#SVGID_3_);} .st4{fill:url(#SVGID_4_);} .st5{fill:url(#SVGID_5_);} .st6{fill:url(#SVGID_6_);} </style> <g> <g> <g> <path class="st0" d="M399.5,10.6h-18.3L379,23.4h16.8l-1.7,9.5h-16.8L373.8,53h-11.7l9.1-51.9h30L399.5,10.6z"></path> <path class="st0" d="M422.4,53.9c-7.4,0-13-2.4-16.9-7.2c-3.8-4.8-5-11.1-3.7-18.9c1.5-8.2,5-14.8,10.6-19.9s12.4-7.6,20.2-7.6 c7.4,0,13,2.4,16.7,7.3c3.7,4.8,4.9,11.2,3.5,19.2c-1.4,8.2-5,14.7-10.6,19.7C436.6,51.4,430,53.9,422.4,53.9z M430.6,10.3 c-4.1,0-7.6,1.5-10.6,4.6s-4.9,7.1-5.8,12.2s-0.4,9.2,1.5,12.2s4.8,4.5,8.7,4.5c4,0,7.5-1.4,10.4-4.4s4.8-6.9,5.7-12.1 c1-5.4,0.5-9.6-1.2-12.6C437.4,11.8,434.5,10.3,430.6,10.3z"></path> <path class="st0" d="M500.3,53h-13.4l-5.7-13.3c-0.4-1-0.8-1.9-1.3-2.7c-0.4-0.8-0.9-1.5-1.3-2c-0.5-0.6-1-1-1.5-1.3 s-1.2-0.4-1.9-0.4H472L468.5,53h-11.7l9.1-51.9h18.5c12.6,0,18,4.7,16.4,14.1c-0.3,1.8-0.9,3.5-1.7,5c-0.8,1.5-1.9,2.9-3.1,4.1 s-2.6,2.3-4.2,3.2s-3.3,1.6-5.2,2.1v0.2c0.7,0.2,1.4,0.6,2,1.2c0.6,0.5,1.2,1.2,1.8,1.9c0.5,0.7,1.1,1.5,1.5,2.3 c0.5,0.8,0.9,1.7,1.2,2.4L500.3,53z M476.1,9.9l-2.5,14.4h5.1c2.5,0,4.6-0.7,6.4-2.2s2.9-3.3,3.3-5.5c0.8-4.5-1.5-6.8-6.9-6.8 h-5.4V9.9z"></path> <path class="st0" d="M542.6,51.2c-4.1,1.8-9.2,2.8-15.3,2.8c-8,0-13.8-2.3-17.5-7s-4.9-10.9-3.5-18.7c1.5-8.3,5.2-15,11.2-20.2 s13.1-7.7,21.3-7.7c5.1,0,9.2,0.6,12.5,1.9l-2,11.2c-3.1-2.1-6.9-3.1-11.3-3.1c-4.9,0-9.1,1.5-12.6,4.6s-5.8,7.2-6.7,12.4 c-0.9,5-0.2,9,2.1,12s5.8,4.5,10.6,4.5c4.6,0,8.9-1.1,13.1-3.3L542.6,51.2z"></path> <path class="st0" d="M582.5,53h-31.1l9.1-51.9h29.9l-1.7,9.5h-18.2l-2,11.5h17l-1.7,9.5h-17l-2.1,11.9h19.4L582.5,53z"></path> </g> <g> <path class="st0" d="M217.9,9.7h-18.7l-2.3,13h17.2l-1.7,9.7h-17.2L191.6,53h-11.9L189,0h30.6L217.9,9.7z"></path> <path class="st0" d="M266.3,30c-2.8,15.9-11.6,23.9-26.5,23.9c-14.4,0-20.2-7.8-17.5-23.3L227.7,0h12l-5.4,30.7 c-1.5,8.6,1.1,12.8,7.8,12.8c6.6,0,10.6-4.1,12-12.4L259.6,0h11.9L266.3,30z"></path> <path class="st0" d="M305.3,53h-31.5l9.3-53H295l-7.6,43.3H307L305.3,53z"></path> <path class="st0" d="M344,53h-31.5l9.3-53h11.9L326,43.3h19.6L344,53z"></path> </g> </g> <g> <path class="st0" d="M243.4,80.8h2l-1.2,5.8c-0.9,0.6-1.8,1.1-2.9,1.4c-1.1,0.3-2.1,0.5-3.2,0.5c-1.5,0-2.8-0.3-3.8-1 s-1.8-1.6-2.3-2.7c-0.4-1.1-0.5-2.4-0.2-3.9c0.3-1.4,0.9-2.7,1.9-3.9c0.9-1.2,2.1-2.1,3.4-2.7c1.4-0.6,2.8-1,4.3-1 c1.2,0,2.2,0.2,3.1,0.6c0.9,0.4,1.6,1,2.1,1.7l-1.6,1.3c-0.9-1.1-2.3-1.7-3.9-1.7c-1.1,0-2.2,0.2-3.2,0.7s-1.9,1.2-2.5,2 c-0.7,0.9-1.2,1.9-1.4,2.9c-0.2,1.1-0.2,2.1,0.1,2.9c0.3,0.9,0.9,1.6,1.7,2.1s1.8,0.7,2.9,0.7c1.3,0,2.6-0.3,3.7-0.9L243.4,80.8z"></path> <path class="st0" d="M268.7,84.6h-7.9l-2.4,3.7h-2.2l9.9-14.9h2.1l3.6,14.9h-2.2L268.7,84.6z M268.3,82.9l-1.7-7.3l-4.7,7.3H268.3 z"></path> <path class="st0" d="M298.4,88.3l2.3-10.8l-7.3,9h-1l-3.5-8.9l-2.3,10.8h-2l3.1-14.9h1.7l4,10.4l8.3-10.4h1.7l-3.1,14.9 L298.4,88.3L298.4,88.3z"></path> <path class="st0" d="M318.6,73.5h2.1l-3.1,14.9h-2.1L318.6,73.5z"></path> <path class="st0" d="M348.6,73.5l-3.1,14.9h-1.7l-6.6-11.1l-2.3,11.1h-2.1l3.1-14.9h1.7l6.6,11.1l2.3-11.1H348.6z"></path> <path class="st0" d="M372.4,80.8h2l-1.2,5.8c-0.9,0.6-1.8,1.1-2.9,1.4c-1,0.3-2.1,0.5-3.2,0.5c-1.5,0-2.8-0.3-3.8-1 s-1.8-1.6-2.3-2.7c-0.4-1.1-0.5-2.4-0.2-3.9c0.3-1.4,0.9-2.7,1.9-3.9c0.9-1.2,2.1-2.1,3.4-2.7s2.8-1,4.3-1c1.2,0,2.2,0.2,3.1,0.6 s1.6,1,2.1,1.7l-1.6,1.3c-1-1.1-2.3-1.7-3.9-1.7c-1.1,0-2.2,0.2-3.2,0.7s-1.9,1.2-2.5,2s-1.2,1.9-1.4,2.9 c-0.2,1.1-0.2,2.1,0.1,2.9s0.9,1.6,1.7,2.1c0.8,0.5,1.8,0.7,2.9,0.7c1.3,0,2.6-0.3,3.7-0.9L372.4,80.8z"></path> <path class="st0" d="M415.6,80.8h2l-1.2,5.8c-0.9,0.6-1.8,1.1-2.9,1.4c-1,0.3-2.1,0.5-3.2,0.5c-1.5,0-2.8-0.3-3.8-1 s-1.8-1.6-2.3-2.7c-0.4-1.1-0.5-2.4-0.2-3.9c0.3-1.4,0.9-2.7,1.9-3.9c0.9-1.2,2.1-2.1,3.4-2.7s2.8-1,4.3-1c1.2,0,2.2,0.2,3.1,0.6 s1.6,1,2.1,1.7l-1.6,1.3c-1-1.1-2.3-1.7-3.9-1.7c-1.1,0-2.2,0.2-3.2,0.7s-1.9,1.2-2.5,2s-1.2,1.9-1.4,2.9 c-0.2,1.1-0.2,2.1,0.1,2.9s0.9,1.6,1.7,2.1c0.8,0.5,1.8,0.7,2.9,0.7c1.3,0,2.6-0.3,3.7-0.9L415.6,80.8z"></path> <path class="st0" d="M440.7,88.3l-2.2-4.6c-0.4,0-0.7,0-0.9,0h-3.7l-1,4.5h-2.1l3.1-14.9h5.8c1.9,0,3.3,0.5,4.2,1.4 s1.2,2.2,0.9,3.8c-0.2,1.1-0.7,2.1-1.5,2.9s-1.7,1.4-2.8,1.8l2.5,5L440.7,88.3L440.7,88.3z M441.1,81.1c0.8-0.6,1.4-1.4,1.6-2.5 s0-1.9-0.5-2.5s-1.5-0.9-2.9-0.9h-3.6l-1.4,6.7h3.6C439.2,82,440.3,81.7,441.1,81.1z"></path> <path class="st0" d="M459.6,87.5c-1.1-0.7-1.8-1.6-2.3-2.7c-0.4-1.2-0.5-2.4-0.2-3.9c0.3-1.4,0.9-2.7,1.9-3.9s2.1-2.1,3.4-2.7 c1.3-0.7,2.8-1,4.3-1s2.8,0.3,3.8,1s1.8,1.6,2.2,2.7c0.4,1.1,0.5,2.4,0.2,3.9s-0.9,2.7-1.8,3.9c-0.9,1.1-2,2.1-3.4,2.7 c-1.3,0.7-2.8,1-4.2,1C462,88.5,460.7,88.2,459.6,87.5z M466.9,85.9c1-0.5,1.8-1.2,2.5-2.1s1.1-1.8,1.4-2.9 c0.2-1.1,0.2-2.1-0.1-2.9s-0.9-1.6-1.6-2.1c-0.8-0.5-1.7-0.7-2.8-0.7s-2.1,0.2-3.1,0.7s-1.8,1.2-2.5,2.1s-1.1,1.8-1.4,2.9 c-0.2,1.1-0.2,2.1,0.1,2.9s0.9,1.6,1.6,2.1c0.8,0.5,1.7,0.7,2.8,0.7C464.9,86.6,466,86.4,466.9,85.9z"></path> <path class="st0" d="M487.1,86.8c-0.9-1.1-1.1-2.8-0.6-4.9l1.8-8.4h2.1l-1.8,8.4c-0.7,3.2,0.4,4.8,3.2,4.8c1.4,0,2.5-0.4,3.4-1.2 c0.9-0.8,1.5-2,1.8-3.6l1.8-8.4h2.1l-1.8,8.4c-0.5,2.1-1.4,3.8-2.7,4.9c-1.3,1.1-3,1.7-5,1.7C489.4,88.5,487.9,87.9,487.1,86.8z"></path> <path class="st0" d="M525.8,74.9c0.9,0.9,1.2,2.2,0.8,3.8c-0.3,1.6-1.2,2.9-2.5,3.8s-2.9,1.4-4.8,1.4h-3.7l-1,4.5h-2.1l3.1-14.9 h5.8C523.5,73.5,524.9,73.9,525.8,74.9z M522.9,81.1c0.8-0.6,1.3-1.4,1.6-2.5c0.2-1.1,0-1.9-0.5-2.5c-0.6-0.6-1.5-0.9-2.9-0.9 h-3.6l-1.4,6.7h3.6C521,82,522.1,81.7,522.9,81.1z"></path> </g> <linearGradient id="SVGID_1_" gradientUnits="userSpaceOnUse" x1="-2.554690e-02" y1="-33.1207" x2="77.0869" y2="-33.1207" gradientTransform="matrix(1 0 0 -1 0 -22.34)"> <stop offset="0" style="stop-color:#CDAA85"></stop> <stop offset="1" style="stop-color:#9E782D"></stop> </linearGradient> <path class="st1" d="M2.1,21h70.6c0.9,0,1.7-0.6,1.8-1.4l2.7-16.8c0.2-1.2-0.8-2.2-2.1-2.2H4.5C3.6,0.4,2.8,1,2.7,1.9L0,18.7 C-0.2,19.9,0.8,21,2.1,21z"></path> <linearGradient id="SVGID_2_" gradientUnits="userSpaceOnUse" x1="15.5931" y1="-64.24" x2="72.6453" y2="-64.24" gradientTransform="matrix(1 0 0 -1 0 -22.34)"> <stop offset="0" style="stop-color:#CDAA85"></stop> <stop offset="1" style="stop-color:#9E782D"></stop> </linearGradient> <path class="st2" d="M17.7,52.1h50.5c0.9,0,1.7-0.6,1.8-1.4l2.7-16.8c0.2-1.2-0.8-2.2-2.1-2.2H20.1c-0.9,0-1.6,0.6-1.8,1.4 l-2.7,16.8C15.5,51,16.5,52.1,17.7,52.1z"></path> <linearGradient id="SVGID_3_" gradientUnits="userSpaceOnUse" x1="38.8745" y1="-95.74" x2="68.699" y2="-95.74" gradientTransform="matrix(1 0 0 -1 0 -22.34)"> <stop offset="0" style="stop-color:#CDAA85"></stop> <stop offset="1" style="stop-color:#9E782D"></stop> </linearGradient> <path class="st3" d="M41,83.6h23.3c0.9,0,1.7-0.6,1.8-1.4l2.7-16.8c0.2-1.2-0.8-2.2-2.1-2.2H43.4c-0.9,0-1.7,0.6-1.8,1.4l-2.7,16.8 C38.7,82.5,39.7,83.6,41,83.6z"></path> <linearGradient id="SVGID_4_" gradientUnits="userSpaceOnUse" x1="84.2615" y1="-33.14" x2="161.3109" y2="-33.14" gradientTransform="matrix(1 0 0 -1 0 -22.34)"> <stop offset="0" style="stop-color:#CDAA85"></stop> <stop offset="1" style="stop-color:#9E782D"></stop> </linearGradient> <path class="st4" d="M156.2,21H85.6c-0.9,0-1.5-0.6-1.3-1.4l2.3-16.8c0.2-1.2,1.5-2.2,2.7-2.2h70.6c0.9,0,1.5,0.6,1.4,1.5L159,18.9 C158.7,19.9,157.4,21,156.2,21z"></path> <linearGradient id="SVGID_5_" gradientUnits="userSpaceOnUse" x1="79.4615" y1="-64.24" x2="136.4109" y2="-64.24" gradientTransform="matrix(1 0 0 -1 0 -22.34)"> <stop offset="0" style="stop-color:#CDAA85"></stop> <stop offset="1" style="stop-color:#9E782D"></stop> </linearGradient> <path class="st5" d="M131.3,52.1H80.8c-0.9,0-1.5-0.6-1.3-1.4l2.3-16.8c0.2-1.2,1.5-2.2,2.7-2.2H135c0.9,0,1.5,0.6,1.4,1.4 L134,49.8C133.8,51,132.5,52.1,131.3,52.1z"></path> <linearGradient id="SVGID_6_" gradientUnits="userSpaceOnUse" x1="73.9951" y1="-95.74" x2="103.6722" y2="-95.74" gradientTransform="matrix(1 0 0 -1 0 -22.34)"> <stop offset="0" style="stop-color:#CDAA85"></stop> <stop offset="1" style="stop-color:#9E782D"></stop> </linearGradient> <path class="st6" d="M98.6,83.6H75.4c-0.9,0-1.5-0.6-1.3-1.4l2.3-16.8c0.2-1.2,1.5-2.2,2.7-2.2h23.3c0.9,0,1.5,0.6,1.3,1.4 l-2.3,16.8C101.2,82.5,99.9,83.6,98.6,83.6z"></path> </g> </svg> 